<?xml version="1.0" encoding="UTF-8"?>
<svg version="1.1" xmlns="http://www.w3.org/2000/svg" width="500" height="500">
<path d="M0 0 C1.91561433 -0.00445668 1.91561433 -0.00445668 3.86992794 -0.0090034 C7.39913096 -0.01703093 10.92831359 -0.01886059 14.45752466 -0.01960087 C18.27029292 -0.02145891 22.08305079 -0.02901006 25.89581299 -0.03573608 C34.22679207 -0.04929057 42.55776633 -0.05533986 50.88875461 -0.05974674 C56.09714341 -0.06251453 61.30553037 -0.0667529 66.51391792 -0.07125092 C80.95244321 -0.08344072 95.39096702 -0.09374001 109.82949734 -0.09712601 C110.75276975 -0.09734557 111.67604216 -0.09756514 112.62729252 -0.09779136 C114.01540161 -0.09811878 114.01540161 -0.09811878 115.4315533 -0.09845281 C117.3065875 -0.09889626 119.18162169 -0.09934283 121.05665588 -0.09979248 C121.98672563 -0.10001391 122.91679538 -0.10023534 123.87504906 -0.10046348 C138.93008491 -0.10440765 153.98507224 -0.12185132 169.04008936 -0.145152 C184.52046652 -0.16891629 200.00081938 -0.18133019 215.48121506 -0.18249393 C224.16326896 -0.18340793 232.84525966 -0.18909064 241.52729607 -0.20731354 C248.92342102 -0.22278334 256.31946324 -0.22779476 263.71560132 -0.21957543 C267.48279602 -0.21569288 271.24982449 -0.21647982 275.01699829 -0.23063278 C306.29031034 -0.34122691 335.18868334 3.26904826 359.23170471 25.14044189 C360.67803284 26.44755127 360.67803284 26.44755127 362.15357971 27.78106689 C380.57856893 45.00180845 392.46388866 69.51858596 393.32581568 94.91319549 C393.36634606 98.2453972 393.37457951 101.57628676 393.37214661 104.90873718 C393.37660329 106.82435151 393.37660329 106.82435151 393.38115001 108.77866513 C393.38917754 112.30786814 393.3910072 115.83705077 393.39174747 119.36626184 C393.39360551 123.1790301 393.40115667 126.99178797 393.40788269 130.80455017 C393.42143717 139.13552926 393.42748647 147.46650351 393.43189335 155.79749179 C393.43466114 161.00588059 393.4388995 166.21426755 393.44339752 171.42265511 C393.45558733 185.86118039 393.46588662 200.2997042 393.46927261 214.73823452 C393.46949218 215.66150693 393.46971175 216.58477934 393.46993797 217.5360297 C393.47015624 218.46143576 393.47037452 219.38684182 393.47059941 220.34029049 C393.47104287 222.21532468 393.47148943 224.09035887 393.47193909 225.96539307 C393.47216052 226.89546282 393.47238195 227.82553256 393.47261009 228.78378624 C393.47655426 243.83882209 393.49399793 258.89380942 393.51729861 273.94882654 C393.5410629 289.4292037 393.5534768 304.90955656 393.55464053 320.38995224 C393.55555454 329.07200614 393.56123725 337.75399685 393.57946014 346.43603325 C393.59492995 353.8321582 393.59994137 361.22820043 393.59172204 368.6243385 C393.58783948 372.39153321 393.58862643 376.15856168 393.60277939 379.92573547 C393.71337351 411.19904752 390.10309835 440.09742052 368.23170471 464.14044189 C366.92459534 465.58677002 366.92459534 465.58677002 365.59107971 467.06231689 C348.37033815 485.48730612 323.85356065 497.37262585 298.45895112 498.23455286 C295.12674941 498.27508324 291.79585985 498.28331669 288.46340942 498.28088379 C286.54779509 498.28534047 286.54779509 498.28534047 284.59348148 498.28988719 C281.06427846 498.29791472 277.53509583 498.29974438 274.00588477 498.30048466 C270.1931165 498.30234269 266.38035864 498.30989385 262.56759644 498.31661987 C254.23661735 498.33017436 245.90564309 498.33622365 237.57465482 498.34063053 C232.36626602 498.34339832 227.15787906 498.34763669 221.9494915 498.3521347 C207.51096622 498.36432451 193.0724424 498.3746238 178.63391209 498.3780098 C177.71063968 498.37822936 176.78736727 498.37844893 175.83611691 498.37867515 C174.44800782 498.37900256 174.44800782 498.37900256 173.03185612 498.3793366 C171.15682193 498.37978005 169.28178773 498.38022661 167.40675354 498.38067627 C166.47668379 498.3808977 165.54661404 498.38111913 164.58836036 498.38134727 C149.53332452 498.38529144 134.47833719 498.40273511 119.42332006 498.42603579 C103.94294291 498.44980008 88.46259004 498.46221398 72.98219436 498.46337771 C64.30014046 498.46429172 55.61814976 498.46997443 46.93611336 498.48819733 C39.53998841 498.50366713 32.14394618 498.50867855 24.74780811 498.50045922 C20.9806134 498.49657667 17.21358493 498.49736361 13.44641113 498.51151657 C-17.82690092 498.6221107 -46.72527392 495.01183553 -70.76829529 473.14044189 C-72.21462341 471.83333252 -72.21462341 471.83333252 -73.69017029 470.49981689 C-92.11515951 453.27907534 -104.00047924 428.76229783 -104.86240625 403.3676883 C-104.90293664 400.03548659 -104.91117008 396.70459703 -104.90873718 393.37214661 C-104.9117083 392.09507039 -104.91467943 390.81799416 -104.91774058 389.50221866 C-104.92576811 385.97301565 -104.92759777 382.44383301 -104.92833805 378.91462195 C-104.93019609 375.10185369 -104.93774725 371.28909582 -104.94447327 367.47633362 C-104.95802775 359.14535453 -104.96407704 350.81438028 -104.96848392 342.483392 C-104.97125171 337.2750032 -104.97549008 332.06661624 -104.9799881 326.85822868 C-104.9921779 312.4197034 -105.0024772 297.98117959 -105.00586319 283.54264927 C-105.00608276 282.61937686 -105.00630232 281.69610445 -105.00652854 280.74485409 C-105.00674682 279.81944803 -105.0069651 278.89404197 -105.00718999 277.9405933 C-105.00763345 276.06555911 -105.00808001 274.19052492 -105.00852966 272.31549072 C-105.00875109 271.38542097 -105.00897252 270.45535122 -105.00920066 269.49709754 C-105.01314483 254.4420617 -105.03058851 239.38707437 -105.05388919 224.33205725 C-105.07765347 208.85168009 -105.09006738 193.37132722 -105.09123111 177.89093155 C-105.09214511 169.20887765 -105.09782783 160.52688694 -105.11605072 151.84485054 C-105.13152052 144.44872559 -105.13653194 137.05268336 -105.12831262 129.65654529 C-105.12443006 125.88935058 -105.12521701 122.12232211 -105.13936996 118.35514832 C-105.24996409 87.08183626 -101.63968892 58.18346327 -79.76829529 34.14044189 C-78.89688904 33.17622314 -78.02548279 32.21200439 -77.12767029 31.21856689 C-56.69617623 9.35829703 -29.51183945 -0.02154551 0 0 Z " fill="#FEFEFE" transform="translate(105.76829528808594,0.85955810546875)"/>
<path d="M0 0 C4.8347063 4.29524048 4.8347063 4.29524048 6.953125 6.39453125 C6.953125 6.72453125 6.953125 7.05453125 6.953125 7.39453125 C5.63647181 7.39673109 5.63647181 7.39673109 4.29321957 7.39897537 C-17.11757848 7.43611331 -38.52821911 7.49522034 -59.9388895 7.57843399 C-70.29316512 7.61815298 -80.64736552 7.65058164 -91.00170898 7.66552734 C-100.03217461 7.67858098 -109.06247423 7.70563988 -118.09284633 7.74914432 C-122.86928947 7.77167595 -127.6455285 7.78744694 -132.4220295 7.7864151 C-136.92914511 7.78566355 -141.43581097 7.80381075 -145.94281006 7.83569908 C-147.58613466 7.84413225 -149.22951011 7.84599347 -150.8728466 7.84033394 C-170.0770971 7.78306838 -186.39283077 12.18871547 -200.73046875 25.8359375 C-216.09875802 42.81102936 -216.79635907 62.19785171 -216.640625 83.91015625 C-216.6389103 86.45928897 -216.63898323 89.00842346 -216.64074707 91.55755615 C-216.63910239 96.87286849 -216.62115448 102.18774435 -216.58886719 107.50292969 C-216.55191426 113.61522926 -216.54320607 119.72706005 -216.5501647 125.8394568 C-216.55650463 131.76832702 -216.54543638 137.69706046 -216.52619934 143.6259079 C-216.51920785 146.12795999 -216.51604009 148.63002599 -216.51689148 151.13208771 C-216.51507939 154.63421001 -216.49357912 158.1356859 -216.46679688 161.63769531 C-216.46972748 162.65410095 -216.47265808 163.67050659 -216.47567749 164.7177124 C-216.29203212 180.40334089 -210.73382369 195.896869 -199.921875 207.39453125 C-185.6917099 220.4997041 -171.04774042 223.84612083 -152.20458984 223.8269043 C-150.41002736 223.83593267 -148.61547103 223.84626252 -146.82092285 223.85778809 C-141.97454563 223.88525789 -137.12828575 223.89462895 -132.2818408 223.90064216 C-127.20759187 223.91005199 -122.13342968 223.93625745 -117.05923462 223.96064758 C-107.46185779 224.00424462 -97.86449787 224.0328333 -88.26705229 224.05597097 C-77.33590206 224.08305912 -66.40483939 224.12696838 -55.47375178 224.17225969 C-32.99817372 224.26500861 -10.52256821 224.33673395 11.953125 224.39453125 C7.42120128 233.78358333 -1.0446636 243.34808763 -9.00280762 250.03900909 C-12.86955658 253.43734541 -15.50379006 255.96850798 -16.046875 261.22888184 C-16.08743132 263.04080594 -16.08483656 264.85403531 -16.046875 266.66601562 C-16.0631897 268.18402645 -16.0631897 268.18402645 -16.07983398 269.73270416 C-16.10584588 272.98563915 -16.07755873 276.23544016 -16.046875 279.48828125 C-16.05499442 281.50555155 -16.06669669 283.5228107 -16.08203125 285.54003906 C-16.11367698 292.99147847 -16.07613581 300.44308209 -16.046875 307.89453125 C-16.046875 324.55953125 -16.046875 341.22453125 -16.046875 358.39453125 C-60.266875 358.39453125 -104.486875 358.39453125 -150.046875 358.39453125 C-153.42468243 349.38704478 -153.42468243 349.38704478 -154.58081055 345.95385742 C-154.84085373 345.18333542 -155.10089691 344.41281342 -155.36882019 343.61894226 C-155.63769547 342.81656631 -155.90657074 342.01419037 -156.18359375 341.1875 C-156.46789749 340.34028885 -156.75220123 339.4930777 -157.04512024 338.62019348 C-157.64004089 336.84481115 -158.23412097 335.06914695 -158.82739258 333.29321289 C-159.73807431 330.57097314 -160.65513176 327.85093108 -161.57226562 325.13085938 C-162.15143557 323.39987133 -162.73022525 321.66875599 -163.30859375 319.9375 C-163.58354172 319.1250029 -163.85848969 318.3125058 -164.14176941 317.47538757 C-165.18168796 314.34317757 -166.046875 311.71805846 -166.046875 308.39453125 C-167.36659805 308.404524 -167.36659805 308.404524 -168.71298218 308.41471863 C-177.03917525 308.47504363 -185.36529401 308.52061385 -193.69165611 308.54996777 C-197.97145349 308.56556667 -202.25106898 308.58669822 -206.53076172 308.62084961 C-210.66752514 308.65365064 -214.80411455 308.6714276 -218.94099808 308.67916298 C-220.51251587 308.68466951 -222.08402508 308.69542162 -223.65546799 308.71172142 C-237.90586497 308.85354019 -248.00501843 307.04528778 -259.046875 297.39453125 C-266.68888365 289.49937117 -269.46491574 279.56640157 -270.609375 268.89453125 C-270.72450439 267.92201416 -270.83963379 266.94949707 -270.95825195 265.94750977 C-271.20311157 263.86430425 -271.44179565 261.78036506 -271.67480469 259.69580078 C-272.06456728 256.23755286 -272.47930061 252.78292937 -272.8984375 249.328125 C-273.1778515 246.99618566 -273.4565139 244.66415613 -273.734375 242.33203125 C-273.86593994 241.23246094 -273.99750488 240.13289063 -274.13305664 239 C-274.25285889 237.96359375 -274.37266113 236.9271875 -274.49609375 235.859375 C-274.65597778 234.49220337 -274.65597778 234.49220337 -274.8190918 233.09741211 C-275.06454537 230.18485425 -275.08470523 227.31604477 -275.046875 224.39453125 C-276.06579834 224.41797607 -277.08472168 224.4414209 -278.13452148 224.46557617 C-284.28677988 224.35385653 -290.10516514 222.97352008 -296.109375 221.70703125 C-297.98979492 221.34061523 -297.98979492 221.34061523 -299.90820312 220.96679688 C-311.50931882 218.53062425 -311.50931882 218.53062425 -316.046875 213.39453125 C-318.46850138 206.12965212 -317.83909397 199.15794612 -314.44140625 192.34375 C-313.2731349 190.24199549 -312.0777495 188.15514329 -310.859375 186.08203125 C-309.89067117 184.36070962 -308.92196993 182.63938653 -307.95349121 180.91793823 C-306.33819564 178.06514356 -304.68924097 175.23180098 -303.046875 172.39453125 C-301.43385009 169.56154791 -299.82817157 166.72451463 -298.22363281 163.88671875 C-297.18587253 162.05284154 -296.14483328 160.22081612 -295.10058594 158.390625 C-289.73676319 148.95601491 -284.65726309 139.37295223 -279.60205078 129.77050781 C-278.96007753 128.55527694 -278.31799019 127.34010633 -277.67578125 126.125 C-277.06661865 124.9702417 -276.45745605 123.8154834 -275.82983398 122.62573242 C-274.20587945 119.68269007 -272.45196309 116.8960059 -270.6171875 114.08203125 C-267.75211189 109.38250004 -267.26038444 105.63377374 -267.359375 100.20703125 C-267.32875603 98.54149003 -267.28959212 96.8760855 -267.2421875 95.2109375 C-267.21930664 94.39641113 -267.19642578 93.58188477 -267.17285156 92.74267578 C-266.85599234 86.83656734 -265.43685008 81.12817844 -264.046875 75.39453125 C-263.758125 74.1621875 -263.469375 72.92984375 -263.171875 71.66015625 C-256.83736321 46.21653389 -244.21521049 23.28383243 -226.046875 4.39453125 C-225.57411133 3.89066895 -225.10134766 3.38680664 -224.61425781 2.86767578 C-165.32741659 -60.18852052 -63.02167657 -54.49690611 0 0 Z " fill="#686DF4" transform="translate(360.046875,98.60546875)"/>
<path d="M0 0 C5.11575056 1.70183285 9.35015815 4.67753531 13.8125 7.625 C14.99489258 8.3984375 14.99489258 8.3984375 16.20117188 9.1875 C18.1367352 10.45441417 20.06953942 11.72532964 22 13 C16.34666069 23.11433796 10.02039497 32.757787 3.67089844 42.44287109 C2.04484753 44.93136572 0.43005355 47.42671105 -1.1796875 49.92578125 C-1.92557129 51.08364136 -1.92557129 51.08364136 -2.68652344 52.26489258 C-3.62040024 53.715952 -4.55339498 55.16757961 -5.48535156 56.61987305 C-5.90526367 57.27125244 -6.32517578 57.92263184 -6.7578125 58.59375 C-7.1202002 59.15771484 -7.48258789 59.72167969 -7.85595703 60.30273438 C-8.4222583 61.14288086 -8.4222583 61.14288086 -9 62 C-9.37146652 62.68374695 -9.74293304 63.3674939 -10.12565613 64.07196045 C-12 66 -12 66 -15.17008972 66.51898193 C-16.47802994 66.52786438 -17.78597015 66.53674683 -19.13354492 66.54589844 C-19.85574722 66.55623611 -20.57794952 66.56657379 -21.32203674 66.57722473 C-23.70840665 66.60671521 -26.09393073 66.60815314 -28.48046875 66.609375 C-30.13529586 66.62435254 -31.79010799 66.64107879 -33.44490051 66.65948486 C-37.79980139 66.70321897 -42.15450063 66.72317073 -46.50958252 66.73822021 C-50.95377558 66.7577696 -55.39775016 66.79974196 -59.84179688 66.83984375 C-68.5611676 66.91521166 -77.2803803 66.96339079 -86 67 C-86 71.95 -86 76.9 -86 82 C-50.36 82.33 -14.72 82.66 22 83 C22 91.25 22 99.5 22 108 C-31.46 108.495 -31.46 108.495 -86 109 C-86.33 114.28 -86.66 119.56 -87 125 C-84.78563232 124.91097412 -82.57126465 124.82194824 -80.28979492 124.73022461 C-72.93914506 124.44740518 -65.58824142 124.26033579 -58.23357677 124.11919308 C-53.77720132 124.03077376 -49.3264356 123.9111309 -44.87329102 123.7175293 C-16.08766165 122.49784313 -16.08766165 122.49784313 -9.3309021 126.63381958 C-5.44219948 130.49121546 -3.36710117 134.80803433 -1.7035675 139.97433472 C-0.71873513 142.80979932 0.84955501 145.11486473 2.5625 147.5625 C6.66494111 154.02755178 10.73386408 160.51517692 14.75878906 167.02880859 C15.63509974 168.42049475 16.5353403 169.79725023 17.45214844 171.16259766 C17.91911133 171.86819824 18.38607422 172.57379883 18.8671875 173.30078125 C19.2988623 173.93798096 19.73053711 174.57518066 20.17529297 175.23168945 C21 177 21 177 20 180 C17.42323174 182.18578068 14.5276807 183.92500303 11.6875 185.75 C10.91470703 186.26949219 10.14191406 186.78898438 9.34570312 187.32421875 C8.22131836 188.05318359 8.22131836 188.05318359 7.07421875 188.796875 C6.38932373 189.24385742 5.70442871 189.69083984 4.9987793 190.15136719 C3 191 3 191 0.89819336 190.84106445 C-1.41826308 189.81467314 -2.11476104 188.88608775 -3.4453125 186.74609375 C-4.09391235 185.72286011 -4.09391235 185.72286011 -4.75561523 184.67895508 C-5.43346069 183.56943481 -5.43346069 183.56943481 -6.125 182.4375 C-6.60074463 181.68041748 -7.07648926 180.92333496 -7.56665039 180.14331055 C-9.0555765 177.76895723 -10.52810049 175.38493641 -12 173 C-12.93237297 171.50704941 -13.86592862 170.01483664 -14.80078125 168.5234375 C-16.08801077 166.4697107 -17.37378785 164.41527269 -18.65087891 162.35522461 C-19.22394775 161.43108765 -19.22394775 161.43108765 -19.80859375 160.48828125 C-20.13657959 159.95759033 -20.46456543 159.42689941 -20.80249023 158.88012695 C-21.19766846 158.25968506 -21.59284668 157.63924316 -22 157 C-22.42192627 155.95013916 -22.84385254 154.90027832 -23.27856445 153.81860352 C-26.54749005 150.432962 -27.48795361 150.53567212 -32.05371094 150.31884766 C-34.61412883 150.31979801 -37.17466807 150.35372075 -39.734375 150.4140625 C-41.09627411 150.42525861 -42.45819745 150.43379685 -43.82012939 150.43978882 C-47.39808326 150.46265605 -50.97456659 150.52155621 -54.55194092 150.5880127 C-58.20499782 150.64948362 -61.8582933 150.67681379 -65.51171875 150.70703125 C-72.6751483 150.77130568 -79.83736781 150.87365454 -87 151 C-87.19480957 151.68344482 -87.38961914 152.36688965 -87.59033203 153.07104492 C-87.85185059 153.96927979 -88.11336914 154.86751465 -88.3828125 155.79296875 C-88.63949707 156.68266357 -88.89618164 157.5723584 -89.16064453 158.48901367 C-92.03201413 167.07890206 -99.17344068 172.9664206 -107 177 C-112.59805144 179.39834602 -117.83886522 179.28272478 -123.81958008 179.25878906 C-124.89839951 179.2622937 -125.97721893 179.26579834 -127.08872986 179.26940918 C-130.64906279 179.27819911 -134.20919635 179.27238563 -137.76953125 179.265625 C-140.25046324 179.26697273 -142.73139497 179.26891416 -145.21232605 179.27142334 C-150.41151443 179.27437115 -155.61063407 179.27008901 -160.80981445 179.26074219 C-167.4608616 179.24936576 -174.11167956 179.25589787 -180.7627306 179.26788712 C-185.88694975 179.27513015 -191.01113086 179.27280624 -196.13535118 179.26763153 C-198.58686022 179.26630087 -201.03837275 179.26792224 -203.4898777 179.27259064 C-206.9240896 179.27769398 -210.35804353 179.26989124 -213.79223633 179.25878906 C-215.30048477 179.26486176 -215.30048477 179.26486176 -216.83920288 179.27105713 C-228.15816768 179.20358444 -236.15388198 177.06991416 -244.72265625 169.47265625 C-256.25140402 157.41317328 -254.72222817 141.91960663 -254.62890625 126.42578125 C-254.62973599 123.93100379 -254.63219933 121.43622639 -254.63621521 118.94145203 C-254.63906385 113.73090015 -254.62445944 108.52078036 -254.59692383 103.31030273 C-254.56958695 97.9728382 -254.56138435 92.63608623 -254.57641602 87.29858398 C-254.59457556 80.82666926 -254.5930739 74.3551119 -254.57420158 67.88319969 C-254.56903524 65.42611406 -254.56948268 62.96900973 -254.57574654 60.51192665 C-254.58122084 57.07566205 -254.56075267 53.64048611 -254.53344727 50.2043457 C-254.53997314 49.19892227 -254.54649902 48.19349884 -254.55322266 47.15760803 C-254.39866959 35.66942884 -249.27220282 27.15504276 -241.1875 19.25 C-233.41154164 13.76108822 -226.78062435 12.41150594 -217.34912109 12.49829102 C-216.21788315 12.49288803 -215.0866452 12.48748505 -213.92112732 12.48191833 C-210.20495953 12.46947403 -206.48957285 12.48589244 -202.7734375 12.50390625 C-200.17990071 12.50375118 -197.58636369 12.50226097 -194.99282837 12.49949646 C-189.56769651 12.49811445 -184.14284963 12.51020121 -178.71777344 12.53344727 C-172.45954758 12.56007888 -166.2016925 12.56179261 -159.94342935 12.5500589 C-153.90189329 12.53925546 -147.86052604 12.54558941 -141.8189888 12.55961418 C-139.25697849 12.56412458 -136.6949573 12.56446909 -134.13294601 12.56054878 C-130.55243425 12.55763388 -126.97252536 12.57415716 -123.39208984 12.59594727 C-122.33735977 12.59144562 -121.2826297 12.58694397 -120.19593811 12.58230591 C-114.32994645 12.64152733 -110.20668121 13.25942558 -105 16 C-104.278125 16.34160156 -103.55625 16.68320313 -102.8125 17.03515625 C-94.86820975 21.53806215 -89.89762423 29.4775758 -87 38 C-87 39.32 -87 40.64 -87 42 C-66.87 42 -46.74 42 -26 42 C-25.34 40.35 -24.68 38.7 -24 37 C-22.89833043 35.22186666 -21.7471207 33.47398023 -20.5625 31.75 C-17.08420868 26.62142447 -13.67544089 21.45499961 -10.3125 16.25 C-9.86140869 15.55358398 -9.41031738 14.85716797 -8.94555664 14.13964844 C-5.91784769 9.45466138 -2.94358574 4.73826184 0 0 Z " fill="#686DF4" transform="translate(422,119)"/>
<path d="M0 0 C1.48831242 0.00667405 2.97660807 0.01863442 4.46484375 0.03515625 C5.22345703 0.03966797 5.98207031 0.04417969 6.76367188 0.04882812 C8.64326246 0.06064945 10.52281274 0.07858547 12.40234375 0.09765625 C16.34599757 9.06915392 18.97897454 18.39740673 21.71484375 27.78515625 C22.44478808 30.27064505 23.17640625 32.75563692 23.90818787 35.24058533 C24.39209147 36.88403324 24.8754634 38.5276378 25.35829163 40.17140198 C27.6103284 47.83116888 29.93427265 55.46782754 32.29614258 63.09448242 C36.40234375 76.44388763 36.40234375 76.44388763 36.40234375 83.09765625 C31.12234375 83.09765625 25.84234375 83.09765625 20.40234375 83.09765625 C17.52734375 75.47265625 17.52734375 75.47265625 16.40234375 72.09765625 C8.48234375 72.09765625 0.56234375 72.09765625 -7.59765625 72.09765625 C-8.58765625 75.39765625 -9.57765625 78.69765625 -10.59765625 82.09765625 C-11.59765625 83.09765625 -11.59765625 83.09765625 -15.4140625 83.1953125 C-16.99612307 83.18863714 -18.57816784 83.176675 -20.16015625 83.16015625 C-20.96646484 83.15564453 -21.77277344 83.15113281 -22.60351562 83.14648438 C-24.60159381 83.13466143 -26.59963408 83.11672539 -28.59765625 83.09765625 C-25.11876712 68.65735108 -20.97388072 54.47508419 -16.56640625 40.29296875 C-15.50827844 36.80285364 -14.51931282 33.29680584 -13.53515625 29.78515625 C-12.33169843 25.52856807 -11.02172036 21.41797109 -9.38671875 17.3125 C-7.83180076 12.94795298 -6.68701708 8.44365338 -5.46484375 3.9765625 C-4.30219573 0.11678056 -4.30219573 0.11678056 0 0 Z " fill="#FCFCFE" transform="translate(230.59765625,172.90234375)"/>
<path d="M0 0 C5.61 0 11.22 0 17 0 C17 27.39 17 54.78 17 83 C11.39 83 5.78 83 0 83 C0 55.61 0 28.22 0 0 Z " fill="#FAFAFE" transform="translate(285,173)"/>
<path d="M0 0 C2.67428959 2.67428959 3.05430885 5.11591177 4.0625 8.75 C4.40410156 9.96171875 4.74570313 11.1734375 5.09765625 12.421875 C5.8936113 15.57812964 6.46486961 18.78921765 7 22 C2.38 22 -2.24 22 -7 22 C-2.22727273 2.22727273 -2.22727273 2.22727273 0 0 Z " fill="#6F74F4" transform="translate(235,205)"/>
</svg>
