<?xml version="1.0" encoding="UTF-8"?>
<svg version="1.1" xmlns="http://www.w3.org/2000/svg" width="500" height="500">
<path d="M0 0 C1.91561433 -0.00445668 1.91561433 -0.00445668 3.86992794 -0.0090034 C7.39913096 -0.01703093 10.92831359 -0.01886059 14.45752466 -0.01960087 C18.27029292 -0.02145891 22.08305079 -0.02901006 25.89581299 -0.03573608 C34.22679207 -0.04929057 42.55776633 -0.05533986 50.88875461 -0.05974674 C56.09714341 -0.06251453 61.30553037 -0.0667529 66.51391792 -0.07125092 C80.95244321 -0.08344072 95.39096702 -0.09374001 109.82949734 -0.09712601 C110.75276975 -0.09734557 111.67604216 -0.09756514 112.62729252 -0.09779136 C114.01540161 -0.09811878 114.01540161 -0.09811878 115.4315533 -0.09845281 C117.3065875 -0.09889626 119.18162169 -0.09934283 121.05665588 -0.09979248 C121.98672563 -0.10001391 122.91679538 -0.10023534 123.87504906 -0.10046348 C138.93008491 -0.10440765 153.98507224 -0.12185132 169.04008936 -0.145152 C184.52046652 -0.16891629 200.00081938 -0.18133019 215.48121506 -0.18249393 C224.16326896 -0.18340793 232.84525966 -0.18909064 241.52729607 -0.20731354 C248.92342102 -0.22278334 256.31946324 -0.22779476 263.71560132 -0.21957543 C267.48279602 -0.21569288 271.24982449 -0.21647982 275.01699829 -0.23063278 C306.29031034 -0.34122691 335.18868334 3.26904826 359.23170471 25.14044189 C360.67803284 26.44755127 360.67803284 26.44755127 362.15357971 27.78106689 C380.57856893 45.00180845 392.46388866 69.51858596 393.32581568 94.91319549 C393.36634606 98.2453972 393.37457951 101.57628676 393.37214661 104.90873718 C393.37660329 106.82435151 393.37660329 106.82435151 393.38115001 108.77866513 C393.38917754 112.30786814 393.3910072 115.83705077 393.39174747 119.36626184 C393.39360551 123.1790301 393.40115667 126.99178797 393.40788269 130.80455017 C393.42143717 139.13552926 393.42748647 147.46650351 393.43189335 155.79749179 C393.43466114 161.00588059 393.4388995 166.21426755 393.44339752 171.42265511 C393.45558733 185.86118039 393.46588662 200.2997042 393.46927261 214.73823452 C393.46949218 215.66150693 393.46971175 216.58477934 393.46993797 217.5360297 C393.47015624 218.46143576 393.47037452 219.38684182 393.47059941 220.34029049 C393.47104287 222.21532468 393.47148943 224.09035887 393.47193909 225.96539307 C393.47216052 226.89546282 393.47238195 227.82553256 393.47261009 228.78378624 C393.47655426 243.83882209 393.49399793 258.89380942 393.51729861 273.94882654 C393.5410629 289.4292037 393.5534768 304.90955656 393.55464053 320.38995224 C393.55555454 329.07200614 393.56123725 337.75399685 393.57946014 346.43603325 C393.59492995 353.8321582 393.59994137 361.22820043 393.59172204 368.6243385 C393.58783948 372.39153321 393.58862643 376.15856168 393.60277939 379.92573547 C393.71337351 411.19904752 390.10309835 440.09742052 368.23170471 464.14044189 C366.92459534 465.58677002 366.92459534 465.58677002 365.59107971 467.06231689 C348.37033815 485.48730612 323.85356065 497.37262585 298.45895112 498.23455286 C295.12674941 498.27508324 291.79585985 498.28331669 288.46340942 498.28088379 C286.54779509 498.28534047 286.54779509 498.28534047 284.59348148 498.28988719 C281.06427846 498.29791472 277.53509583 498.29974438 274.00588477 498.30048466 C270.1931165 498.30234269 266.38035864 498.30989385 262.56759644 498.31661987 C254.23661735 498.33017436 245.90564309 498.33622365 237.57465482 498.34063053 C232.36626602 498.34339832 227.15787906 498.34763669 221.9494915 498.3521347 C207.51096622 498.36432451 193.0724424 498.3746238 178.63391209 498.3780098 C177.71063968 498.37822936 176.78736727 498.37844893 175.83611691 498.37867515 C174.44800782 498.37900256 174.44800782 498.37900256 173.03185612 498.3793366 C171.15682193 498.37978005 169.28178773 498.38022661 167.40675354 498.38067627 C166.47668379 498.3808977 165.54661404 498.38111913 164.58836036 498.38134727 C149.53332452 498.38529144 134.47833719 498.40273511 119.42332006 498.42603579 C103.94294291 498.44980008 88.46259004 498.46221398 72.98219436 498.46337771 C64.30014046 498.46429172 55.61814976 498.46997443 46.93611336 498.48819733 C39.53998841 498.50366713 32.14394618 498.50867855 24.74780811 498.50045922 C20.9806134 498.49657667 17.21358493 498.49736361 13.44641113 498.51151657 C-17.82690092 498.6221107 -46.72527392 495.01183553 -70.76829529 473.14044189 C-72.21462341 471.83333252 -72.21462341 471.83333252 -73.69017029 470.49981689 C-92.11515951 453.27907534 -104.00047924 428.76229783 -104.86240625 403.3676883 C-104.90293664 400.03548659 -104.91117008 396.70459703 -104.90873718 393.37214661 C-104.9117083 392.09507039 -104.91467943 390.81799416 -104.91774058 389.50221866 C-104.92576811 385.97301565 -104.92759777 382.44383301 -104.92833805 378.91462195 C-104.93019609 375.10185369 -104.93774725 371.28909582 -104.94447327 367.47633362 C-104.95802775 359.14535453 -104.96407704 350.81438028 -104.96848392 342.483392 C-104.97125171 337.2750032 -104.97549008 332.06661624 -104.9799881 326.85822868 C-104.9921779 312.4197034 -105.0024772 297.98117959 -105.00586319 283.54264927 C-105.00608276 282.61937686 -105.00630232 281.69610445 -105.00652854 280.74485409 C-105.00674682 279.81944803 -105.0069651 278.89404197 -105.00718999 277.9405933 C-105.00763345 276.06555911 -105.00808001 274.19052492 -105.00852966 272.31549072 C-105.00875109 271.38542097 -105.00897252 270.45535122 -105.00920066 269.49709754 C-105.01314483 254.4420617 -105.03058851 239.38707437 -105.05388919 224.33205725 C-105.07765347 208.85168009 -105.09006738 193.37132722 -105.09123111 177.89093155 C-105.09214511 169.20887765 -105.09782783 160.52688694 -105.11605072 151.84485054 C-105.13152052 144.44872559 -105.13653194 137.05268336 -105.12831262 129.65654529 C-105.12443006 125.88935058 -105.12521701 122.12232211 -105.13936996 118.35514832 C-105.24996409 87.08183626 -101.63968892 58.18346327 -79.76829529 34.14044189 C-78.89688904 33.17622314 -78.02548279 32.21200439 -77.12767029 31.21856689 C-56.69617623 9.35829703 -29.51183945 -0.02154551 0 0 Z " fill="#FFFEFD" transform="translate(105.76829528808594,0.85955810546875)"/>
<path d="M0 0 C1.20341053 -0.00384491 1.20341053 -0.00384491 2.43113238 -0.0077675 C5.10440724 -0.01268695 7.7771103 0.00375686 10.45033264 0.02018738 C12.37252285 0.02103405 14.29471404 0.02055773 16.21690369 0.01885986 C21.42508609 0.01800005 26.6330607 0.0356237 31.84119487 0.05658174 C37.2877654 0.07535075 42.73434084 0.07709916 48.18093872 0.08065796 C58.49033956 0.08997775 68.79964483 0.11459069 79.1090036 0.14470643 C90.84774412 0.17825244 102.58648924 0.19473697 114.32526577 0.20979273 C138.46865157 0.24114026 162.61195257 0.29389954 186.75526428 0.36076355 C186.76113052 1.02982224 186.76699677 1.69888092 186.77304077 2.38821411 C186.8372024 9.3807198 186.92168043 16.37277492 187.01771545 23.36491394 C187.05087554 25.97097313 187.07893494 28.57710259 187.10169983 31.18327332 C187.13540917 34.93935465 187.18773541 38.6947971 187.24354553 42.4506073 C187.25313042 44.18551674 187.25313042 44.18551674 187.26290894 45.95547485 C187.45320482 56.53502548 189.55967845 64.45769805 196.75526428 72.36076355 C197.42235413 73.12259949 197.42235413 73.12259949 198.10292053 73.89982605 C203.98427241 79.26361896 213.22032466 78.79288846 220.75526428 79.36076355 C220.77713806 80.31330017 220.77713806 80.31330017 220.79945374 81.28507996 C220.87431517 84.18589436 220.97084854 87.08560561 221.06776428 89.98576355 C221.09032288 90.98478699 221.11288147 91.98381042 221.13612366 93.0131073 C221.33524685 98.47994406 221.62560004 102.67752497 224.75526428 107.36076355 C227.9993259 110.16245313 229.99020428 111.26513105 234.25526428 111.79826355 C243.93329314 110.58850994 249.86836888 103.4682872 255.75526428 96.36076355 C256.80830626 94.88018031 257.8546566 93.39481443 258.8941803 91.90470886 C264.17278586 84.93672646 269.51675022 79.44275973 278.51805687 78.17971039 C287.73174776 77.28924061 297.01906186 77.65787938 306.25257874 78.02134705 C312.68710883 78.2571296 319.12560349 78.33804058 325.56352425 78.42537689 C327.78877679 78.46903341 330.00952281 78.55257798 332.23327637 78.6436615 C341.59804303 78.93964432 348.80721969 77.90869148 355.89038086 71.39830017 C363.71046199 63.37146399 364.21018774 54.82569525 364.26698303 44.11076355 C364.28493423 42.85690857 364.30288544 41.60305359 364.32138062 40.311203 C364.36617509 37.00360494 364.39857959 33.69619969 364.42481995 30.38841248 C364.45478237 27.00276009 364.50125808 23.61733698 364.54627991 20.2318573 C364.63104586 13.60826592 364.69946162 6.98465888 364.75526428 0.36076355 C366.34378799 0.79410042 367.92913038 1.23910835 369.51307678 1.68888855 C370.8378302 2.05868835 370.8378302 2.05868835 372.18934631 2.43595886 C378.98858416 4.88653098 382.7219694 10.06084341 385.75526428 16.36076355 C387.00731344 20.51886169 386.89087414 24.62152122 386.8755188 28.92808533 C386.87637482 29.79919449 386.87723083 30.67030365 386.87811279 31.56781006 C386.87977029 34.50109389 386.87424056 37.43432086 386.86878967 40.36759949 C386.86848341 42.50070824 386.86861671 44.6338171 386.86915493 46.76692581 C386.86938099 52.48712763 386.86357873 58.2073086 386.85654449 63.92750549 C386.85085599 69.29214037 386.85058172 74.65677013 386.84986877 80.02140808 C386.84461827 95.71786267 386.83065716 111.41431337 386.81776428 127.11076355 C386.79713928 162.17326355 386.77651428 197.23576355 386.75526428 233.36076355 C250.13526428 233.36076355 113.51526428 233.36076355 -27.24473572 233.36076355 C-27.32723572 198.05076355 -27.40973572 162.74076355 -27.49473572 126.36076355 C-27.53115173 115.20908386 -27.56756775 104.05740417 -27.60508728 92.5677948 C-27.62315369 78.95646667 -27.62315369 78.95646667 -27.62651062 72.58561707 C-27.63023917 68.13338762 -27.64523673 63.68134871 -27.66703796 59.22917175 C-27.69448352 53.54904771 -27.70269868 47.86920054 -27.69702482 42.18901634 C-27.69821118 40.10508869 -27.7061378 38.02115131 -27.72159624 35.93728065 C-27.74152679 33.11951518 -27.73668449 30.30282183 -27.72575378 27.48503113 C-27.73740444 26.67201538 -27.7490551 25.85899963 -27.76105881 25.02134705 C-27.69176475 18.36390365 -25.70023161 13.22128969 -21.35020447 8.1537323 C-20.71727478 7.62392761 -20.08434509 7.09412292 -19.43223572 6.54826355 C-18.80704041 6.00556824 -18.18184509 5.46287292 -17.53770447 4.9037323 C-11.79057577 1.03641401 -6.86394121 -0.0812367 0 0 Z " fill="#FFD000" transform="translate(70.24473571777344,88.63923645019531)"/>
<path d="M0 0 C1.87164151 0.00113916 1.87164151 0.00113916 3.78109396 0.00230134 C4.82543786 -0.0011602 4.82543786 -0.0011602 5.89087963 -0.00469166 C8.24731938 -0.01002773 10.6034913 -0.00097795 12.95991743 0.00788796 C14.65693714 0.00701663 16.3539566 0.00526699 18.05097461 0.00270963 C22.73253685 -0.00178216 27.41400833 0.00626479 32.095559 0.01626575 C37.13715246 0.02487171 42.17874045 0.02198212 47.22033918 0.0204612 C55.96131967 0.01941054 64.70227039 0.02570606 73.44324338 0.03693688 C86.08134904 0.05316438 98.71944025 0.05839706 111.3575552 0.06091286 C131.8601391 0.0652943 152.36270713 0.07861553 172.86528242 0.09751809 C192.78618004 0.1158653 212.70707336 0.13002747 232.62797773 0.13853371 C233.85510746 0.13905916 235.0822372 0.13958461 236.34655268 0.14012598 C242.50246467 0.14273598 248.65837669 0.14526341 254.81428874 0.14774978 C305.91495646 0.16849624 357.01560695 0.20373394 408.11625898 0.24839699 C409.3249275 2.66573403 409.26233015 4.23721908 409.29326093 6.9383384 C409.30609617 7.9134034 409.3189314 8.8884684 409.33215559 9.89308083 C409.34323598 11.48048577 409.34323598 11.48048577 409.35454023 13.09995949 C409.36261198 14.18795846 409.37068372 15.27595742 409.37900007 16.39692605 C409.39285149 18.70531026 409.40356889 21.01371505 409.41142499 23.32212746 C409.42858775 26.83831623 409.47245968 30.35355268 409.5166496 33.86949074 C409.52678084 36.11297341 409.53529559 38.35646408 409.54204023 40.59995949 C409.55954832 41.64608407 409.5770564 42.69220864 409.59509504 43.77003396 C409.57599974 50.25776694 408.60466685 54.75946978 405.11625898 60.24839699 C404.58000898 61.13527199 404.04375898 62.02214699 403.49125898 62.93589699 C395.46693511 70.74905444 386.15804768 70.96675234 375.57251203 70.87658608 C374.00556274 70.88163741 372.43861924 70.88887076 370.8716889 70.89808422 C366.58640415 70.91694962 362.30169292 70.90480536 358.01642299 70.88736129 C353.38721628 70.87396 348.75809197 70.88943411 344.12889326 70.90118325 C335.06928189 70.9195423 326.00988649 70.91105967 316.9502819 70.89309502 C309.58786431 70.87906014 302.22550529 70.87517814 294.86307561 70.8785373 C293.29034669 70.87925346 293.29034669 70.87925346 291.68584546 70.87998409 C289.55579791 70.88101043 287.42575036 70.88206579 285.29570284 70.88314985 C266.47046417 70.89171308 247.64532971 70.87505274 228.8201164 70.84532082 C210.55379586 70.81647201 192.28762535 70.80940622 174.02128828 70.82481301 C154.1247241 70.84157185 134.22823112 70.84561356 114.3316651 70.82810265 C112.21044176 70.82625827 110.08921841 70.82442354 107.96799505 70.82259858 C106.92433212 70.82168649 105.88066919 70.8207744 104.80538011 70.81983467 C97.4502317 70.81422826 90.09511805 70.81753732 82.73997152 70.82414353 C73.77901711 70.83187264 64.8182104 70.82513893 55.85728578 70.79996849 C51.28524872 70.78746512 46.71344174 70.78133719 42.14139593 70.79251015 C37.9562172 70.80254471 33.77149749 70.79410986 29.58637466 70.77092897 C28.07243488 70.76576623 26.55845402 70.76733779 25.0445321 70.77632362 C11.14504605 70.85196112 11.14504605 70.85196112 5.11625898 66.24839699 C3.78594648 65.38214699 3.78594648 65.38214699 2.42875898 64.49839699 C-1.56662183 60.61099945 -4.67589503 54.67983639 -5.01745379 49.0408622 C-5.02126559 48.18307671 -5.02507739 47.32529122 -5.02900469 46.44151223 C-5.03538455 45.46717736 -5.0417644 44.49284249 -5.04833758 43.48898232 C-5.0494504 42.4389251 -5.05056323 41.38886788 -5.05170977 40.30699074 C-5.05503817 39.22837273 -5.05836657 38.14975472 -5.06179583 37.03845131 C-5.06685973 34.75793299 -5.06920432 32.47740726 -5.06904376 30.19688332 C-5.07123448 26.69635357 -5.08940764 23.19613676 -5.1083504 19.69566262 C-5.1112835 17.48277307 -5.11326885 15.26988203 -5.11420977 13.05699074 C-5.12139529 12.00490929 -5.1285808 10.95282784 -5.13598406 9.86886513 C-5.13290743 8.89768242 -5.1298308 7.92649971 -5.12666094 6.92588723 C-5.12808596 6.06889733 -5.12951098 5.21190743 -5.13097918 4.32894814 C-4.71274778 0.80945978 -3.38483266 0.29155956 0 0 Z " fill="#FFD000" transform="translate(47.88374102115631,327.7516030073166)"/>
<path d="M0 0 C1.10598038 -0.00852997 2.21196075 -0.01705994 3.35145569 -0.02584839 C4.55520844 -0.02494202 5.75896118 -0.02403564 6.99919128 -0.02310181 C8.91221794 -0.03317764 8.91221794 -0.03317764 10.8638916 -0.04345703 C14.35577612 -0.0610942 17.84756256 -0.06581148 21.33948731 -0.0670886 C23.52374615 -0.06851221 25.70798022 -0.07278581 27.89223289 -0.07808304 C35.52002413 -0.09657672 43.14774556 -0.1047546 50.77555847 -0.10317993 C57.87325596 -0.10197914 64.97064906 -0.12307063 72.06826955 -0.15466726 C78.17206871 -0.18086629 84.27576868 -0.19154569 90.37962359 -0.19026911 C94.020676 -0.18976048 97.66145786 -0.19538827 101.30245399 -0.21662521 C105.36694072 -0.2396857 109.43075071 -0.23046466 113.49528503 -0.21841431 C114.69296509 -0.22965332 115.89064514 -0.24089233 117.12461853 -0.25247192 C124.90378505 -0.19391403 130.3207388 0.7944715 136.42961121 5.94320679 C136.86660339 6.48332397 137.30359558 7.02344116 137.75382996 7.57992554 C138.42865417 8.37849976 138.42865417 8.37849976 139.11711121 9.19320679 C142.74565572 14.87685616 143.8869201 19.73291835 143.84538269 26.43075562 C143.85224594 27.21550766 143.85910919 28.0002597 143.86618042 28.80879211 C143.8843764 31.38503479 143.88062039 33.96066407 143.87492371 36.53695679 C143.87948988 38.34145809 143.88479675 40.14595765 143.89080811 41.95045471 C143.89972578 45.72716345 143.8973325 49.5036606 143.88737488 53.28036499 C143.8759035 58.09864704 143.89607531 62.9161942 143.92529202 67.73437977 C143.94372233 71.4603991 143.94334772 75.18624468 143.9376545 78.9122982 C143.93750203 80.68754798 143.94348431 82.46281009 143.95594597 84.23801613 C144.07759042 104.41109654 144.07759042 104.41109654 137.51164246 112.70492554 C136.86968933 113.22055054 136.22773621 113.73617554 135.56632996 114.26742554 C134.92953308 114.80367554 134.29273621 115.33992554 133.63664246 115.89242554 C128.73669969 118.96142884 124.3002762 119.49199961 118.60758972 119.22128296 C117.24723622 119.16553898 115.88684693 119.11066319 114.52642822 119.05653381 C113.45456111 119.00928445 113.45456111 119.00928445 112.36104012 118.96108055 C107.6989967 118.7765778 103.03318562 118.71651395 98.36847019 118.63115978 C94.30141425 118.54978457 90.24374094 118.42836669 86.18132019 118.2149353 C64.29871479 116.87705478 64.29871479 116.87705478 45.59522533 126.74872684 C40.35608551 131.82255007 35.84551956 137.46388797 31.44132996 143.26742554 C25.59570411 150.59132245 25.59570411 150.59132245 21.44132996 152.26742554 C17.62306456 152.18787834 16.00601289 151.83102499 13.27824402 149.10848999 C11.08122573 145.71047008 10.97464254 143.88518663 11.05070496 139.87289429 C11.06359558 138.67084351 11.07648621 137.46879272 11.08976746 136.23031616 C11.12328308 134.98443726 11.15679871 133.73855835 11.19132996 132.45492554 C11.20937683 131.18971069 11.22742371 129.92449585 11.24601746 128.62094116 C11.2930908 125.50233219 11.35883902 122.3852658 11.44132996 119.26742554 C10.23476746 119.32543335 9.02820496 119.38344116 7.78507996 119.44320679 C-7.91134516 119.98062092 -7.91134516 119.98062092 -13.01570129 115.90414429 C-19.12619194 109.42238333 -21.70579811 105.01176202 -21.735672 96.08920288 C-21.74224319 95.24344696 -21.74881439 94.39769104 -21.75558472 93.52630615 C-21.77534347 90.71865758 -21.78698826 87.91106266 -21.79695129 85.10336304 C-21.80102682 84.1443169 -21.80510235 83.18527077 -21.80930138 82.19716263 C-21.8301767 77.11755843 -21.84447004 72.03798134 -21.85383606 66.95834351 C-21.86488178 61.71942915 -21.8992563 56.48094173 -21.93900776 51.24217796 C-21.96520271 47.20830516 -21.97353064 43.17453341 -21.97711754 39.14058304 C-21.98197889 37.21015171 -21.99357996 35.27972476 -22.01215553 33.34937668 C-22.03660006 30.63991694 -22.03557194 27.93155248 -22.02864075 25.22201538 C-22.04145081 24.43105469 -22.05426086 23.64009399 -22.06745911 22.82516479 C-22.00731052 16.34106865 -20.07123689 11.17908019 -15.81257629 6.24398804 C-15.25441223 5.79797241 -14.69624817 5.35195679 -14.12117004 4.89242554 C-13.56558411 4.43094116 -13.00999817 3.96945679 -12.43757629 3.49398804 C-8.38718606 0.84986634 -4.80155399 0.01679161 0 0 Z " fill="#FFD002" transform="translate(285.5586700439453,42.732574462890625)"/>
<path d="M0 0 C1.07109009 -0.0071553 2.14218018 -0.01431061 3.24572754 -0.02168274 C4.42600525 -0.02437164 5.60628296 -0.02706055 6.82232666 -0.02983093 C8.68099365 -0.03968773 8.68099365 -0.03968773 10.57720947 -0.04974365 C14.69309731 -0.06951476 18.80894613 -0.08114778 22.92486572 -0.09111023 C24.341881 -0.0951577 25.75889608 -0.09927462 27.17591095 -0.10346031 C33.83409446 -0.12251494 40.49226687 -0.13674453 47.1504724 -0.14507228 C54.83435125 -0.1548416 62.51794178 -0.18115167 70.20171905 -0.22157317 C76.14150923 -0.25174683 82.08121683 -0.26654239 88.02108216 -0.26985329 C91.56823909 -0.27220271 95.11508812 -0.28114807 98.66216278 -0.30631447 C102.62189426 -0.33395408 106.58124749 -0.32976017 110.54107666 -0.32279968 C111.71325745 -0.33560974 112.88543823 -0.3484198 114.09313965 -0.36161804 C120.32965243 -0.32160841 124.25905474 -0.15196735 128.94049072 4.14717102 C131.01446317 7.25812969 131.19172203 7.93311784 131.20118713 11.460495 C131.20827194 12.34087936 131.21535675 13.22126373 131.22265625 14.12832642 C131.22017883 15.09151291 131.21770142 16.0546994 131.21514893 17.04707336 C131.22025986 18.06360489 131.22537079 19.08013641 131.2306366 20.12747192 C131.24456451 23.49607695 131.24357327 26.86447808 131.24127197 30.23310852 C131.24515741 32.57096941 131.24949176 34.90882959 131.2542572 37.24668884 C131.2617265 42.15103949 131.26142317 47.05531817 131.25616455 51.95967102 C131.25037192 58.24691207 131.26729274 64.53385834 131.29050922 70.82105064 C131.30523679 75.6508812 131.30611953 80.48064063 131.3029995 85.31048965 C131.30351329 87.62854725 131.30876195 89.94660876 131.31881142 92.26464462 C131.33113799 95.50611801 131.32440624 98.74701555 131.31280518 101.98847961 C131.32044891 102.94761765 131.32809265 103.90675568 131.33596802 104.8949585 C131.29732331 109.77642579 131.21779423 113.25140727 127.94049072 117.14717102 C124.79536737 119.99500918 122.7698666 120.52406033 118.55781555 120.53485107 C117.46570267 120.54475571 116.37358978 120.55466034 115.24838257 120.56486511 C114.05502289 120.56036346 112.86166321 120.55586182 111.63214111 120.55122375 C110.3716243 120.55808701 109.11110748 120.56495026 107.81239319 120.57202148 C104.35778531 120.58996407 100.90343127 120.5887825 97.44879079 120.5830791 C94.56357667 120.57998866 91.67841141 120.5860781 88.79320425 120.59211785 C81.98589447 120.60616519 75.17871017 120.60460023 68.37139893 120.59321594 C61.3514667 120.58173541 54.33191654 120.5958085 47.31203467 120.62261242 C41.28217443 120.64477309 35.25243409 120.65140597 29.22253603 120.64553601 C25.62238094 120.64216593 22.02247074 120.64458442 18.42234993 120.66178703 C14.407399 120.68013448 10.39319086 120.66606552 6.37823486 120.64888 C5.18689941 120.65854797 3.99556396 120.66821594 2.76812744 120.67817688 C-5.28601737 120.60583859 -5.28601737 120.60583859 -9.27436829 118.24081421 C-11.81047803 115.26642231 -12.18638848 113.66178692 -12.21340942 109.84020996 C-12.22631012 108.48383171 -12.22631012 108.48383171 -12.23947144 107.10005188 C-12.24373138 106.1052179 -12.24799133 105.11038391 -12.25238037 104.08540344 C-12.26055786 103.03975723 -12.26873535 101.99411102 -12.27716064 100.91677856 C-12.30203855 97.44540485 -12.318536 93.97407207 -12.33294678 90.50263977 C-12.33827045 89.31919794 -12.34359413 88.13575611 -12.34907913 86.91645241 C-12.37581992 80.65376558 -12.3951927 74.39109877 -12.40960693 68.12837219 C-12.42626552 61.65153409 -12.47105149 55.17520377 -12.52197838 48.69855785 C-12.55559112 43.72547809 -12.56717782 38.75251977 -12.57283401 33.77933693 C-12.57956197 31.39146858 -12.59482376 29.00360865 -12.61872482 26.61585045 C-12.65025248 23.27585003 -12.65043129 19.93723161 -12.64300537 16.59712219 C-12.65941071 15.6083609 -12.67581604 14.61959961 -12.69271851 13.60087585 C-12.65005426 8.91971495 -12.60595853 6.8475194 -9.64804077 3.05654907 C-6.0720046 0.41875811 -4.38290278 0.0200478 0 0 Z " fill="#FFFEFB" transform="translate(104.05950927734375,154.8528289794922)"/>
<path d="M0 0 C4.70921432 1.26139669 6.52786604 3.44727667 9.15649414 7.47680664 C9.96268188 8.8978772 9.96268188 8.8978772 10.78515625 10.34765625 C11.39351318 11.41032715 12.00187012 12.47299805 12.62866211 13.56787109 C13.60423471 15.29929384 14.57979581 17.03072316 15.55471802 18.76251221 C16.55847047 20.54431877 17.56384256 22.32519584 18.5703125 24.10546875 C18.90222092 24.69382507 19.23412933 25.2821814 19.57609558 25.8883667 C21.57601977 29.40476949 23.68366489 32.81204144 25.9296875 36.17578125 C26.44136475 36.96782959 26.95304199 37.75987793 27.48022461 38.57592773 C28.40083068 39.98883982 29.35394081 41.38155179 30.34985352 42.74243164 C35.91382088 51.49496798 33.5 58.62132829 33.5 69.9375 C-5.44 69.9375 -44.38 69.9375 -84.5 69.9375 C-84.5 51.25491071 -84.5 51.25491071 -79.0625 44.97265625 C-75.13356683 40.31902657 -71.99664543 35.16212251 -68.71386719 30.04125977 C-67.98151855 28.92255493 -67.98151855 28.92255493 -67.234375 27.78125 C-66.80350586 27.11287109 -66.37263672 26.44449219 -65.92871094 25.75585938 C-64.29801712 23.68043089 -62.74601176 22.32395351 -60.5 20.9375 C-56.08859147 20.89739629 -54.15196048 21.33986956 -50.875 24.34375 C-50.09125 25.3646875 -49.3075 26.385625 -48.5 27.4375 C-48.07992676 27.97487793 -47.65985352 28.51225586 -47.22705078 29.06591797 C-46.37675257 30.15721499 -45.53434259 31.2547071 -44.70019531 32.35839844 C-43.59416854 33.8136021 -42.4509871 35.24036655 -41.3046875 36.6640625 C-36.5 42.63588057 -36.5 42.63588057 -36.5 44.9375 C-34.62995934 44.95203331 -34.62995934 44.95203331 -32.5 43.9375 C-30.87816302 41.69471824 -29.5168768 39.55363877 -28.1640625 37.15625 C-27.76222748 36.46873657 -27.36039246 35.78122314 -26.94638062 35.07287598 C-25.66053821 32.86782661 -24.39225685 30.65327356 -23.125 28.4375 C-21.45510572 25.54941465 -19.77914177 22.66487724 -18.1015625 19.78125 C-17.69875061 19.08845947 -17.29593872 18.39566895 -16.88092041 17.68188477 C-6.49243521 -0.11593634 -6.49243521 -0.11593634 0 0 Z " fill="#FFD001" transform="translate(188.5,192.0625)"/>
<path d="M0 0 C1.73076971 -0.04478433 3.46258917 -0.05630155 5.19387817 -0.04188538 C6.61407257 -0.06488457 6.61407257 -0.06488457 8.06295776 -0.08834839 C11.19457808 -0.13006869 14.32421994 -0.12716532 17.45608521 -0.12025452 C19.63318621 -0.13191469 21.8102804 -0.14491856 23.98736572 -0.15921021 C28.55219636 -0.18160393 33.11633102 -0.18071981 37.68118286 -0.16493225 C43.52873599 -0.14755302 49.37343673 -0.19831339 55.22051811 -0.26796627 C59.71769844 -0.31218832 64.21419243 -0.31479268 68.71155167 -0.30543709 C70.86695122 -0.3069766 73.02238923 -0.32268854 75.17757797 -0.35287285 C78.19530474 -0.38994673 81.20748861 -0.36963172 84.22512817 -0.33485413 C85.11364471 -0.35778534 86.00216125 -0.38071655 86.91760254 -0.40434265 C89.51377553 -0.33828762 91.4215999 -0.1775608 93.83889771 0.78208923 C96.41805243 3.5036234 98.11658759 6.47090462 99.83889771 9.78208923 C100.55039504 10.97194354 101.26659175 12.1590083 101.98880005 13.34239197 C105.79400287 19.97246603 105.79400287 19.97246603 107.12747192 22.31407166 C108.22753393 24.24350626 109.3356841 26.16814467 110.44436646 28.09263611 C111.14667609 29.32087355 111.84851696 30.54937919 112.54983521 31.77818298 C113.18195923 32.88347351 113.81408325 33.98876404 114.46536255 35.12754822 C115.83889771 37.78208923 115.83889771 37.78208923 115.83889771 39.78208923 C68.97889771 39.78208923 22.11889771 39.78208923 -26.16110229 39.78208923 C-24.57710663 35.03010222 -23.12023928 31.70736088 -20.60641479 27.50083923 C-20.26359467 26.92426575 -19.92077454 26.34769226 -19.56756592 25.75364685 C-18.84573898 24.54195678 -18.12117666 23.33189242 -17.39401245 22.12339783 C-16.29107567 20.29035481 -15.19606596 18.4527714 -14.10250854 16.61412048 C-12.13977712 13.32555906 -10.17240863 10.0413091 -8.16110229 6.78208923 C-7.65504456 5.74587936 -7.14898682 4.70966949 -6.62759399 3.64205933 C-3.9877109 0.58103678 -3.73803295 0.35688683 0 0 Z " fill="#FFD000" transform="translate(205.16110229492188,404.21791076660156)"/>
<path d="M0 0 C4.17297941 0.80378118 7.57368532 2.90115681 11.1953125 5.04785156 C12.03892334 5.53060547 12.88253418 6.01335937 13.75170898 6.51074219 C15.58495447 7.56373097 17.41348592 8.62495954 19.23779297 9.69335938 C22.39085801 11.53720226 25.55940813 13.35233735 28.73046875 15.16503906 C30.90698121 16.41637226 33.08277507 17.66895627 35.2578125 18.92285156 C36.29873047 19.52178223 37.33964844 20.12071289 38.41210938 20.73779297 C39.38341797 21.3041748 40.35472656 21.87055664 41.35546875 22.45410156 C42.64916382 23.20530273 42.64916382 23.20530273 43.96899414 23.97167969 C46.05590397 25.33198148 47.65385781 26.47007685 49.1953125 28.42285156 C49.90064893 33.88920887 49.90064893 33.88920887 49.1953125 36.42285156 C46.00471912 40.16533137 42.67612815 42.52197964 38.3828125 44.86035156 C37.15920304 45.53701615 35.93663363 46.21556328 34.71484375 46.89550781 C34.01955566 47.28109863 33.32426758 47.66668945 32.60791016 48.06396484 C26.48049905 51.51520652 20.43714327 55.11574118 14.37182617 58.67456055 C13.37256104 59.25923096 12.3732959 59.84390137 11.34375 60.44628906 C10.44833496 60.9714209 9.55291992 61.49655273 8.63037109 62.03759766 C3.83549605 64.76530179 0.8885344 66.12201916 -4.8046875 65.42285156 C-7.48803711 63.68286133 -7.48803711 63.68286133 -9.8046875 60.42285156 C-10.55031524 56.22645331 -10.4811089 52.07768383 -10.43359375 47.82519531 C-10.43600571 46.59877823 -10.43841766 45.37236115 -10.44090271 44.10877991 C-10.43992415 41.51902021 -10.42652872 38.92923962 -10.40161133 36.33959961 C-10.36728123 32.37118685 -10.38096023 28.40499751 -10.40039062 24.43652344 C-10.39349302 21.9202379 -10.38382142 19.40395812 -10.37109375 16.88769531 C-10.37605362 15.69909409 -10.38101349 14.51049286 -10.38612366 13.28587341 C-10.37028732 12.18115189 -10.35445099 11.07643036 -10.33813477 9.93823242 C-10.33193619 8.96736191 -10.32573761 7.99649139 -10.3193512 6.99620056 C-9.19158333 1.35729436 -5.48887152 -0.30128031 0 0 Z " fill="#FFFEFC" transform="translate(331.8046875,69.5771484375)"/>
<path d="M0 0 C0.76749492 0.00291284 1.53498984 0.00582568 2.32574219 0.00882679 C3.13513998 0.00797237 3.94453777 0.00711794 4.77846277 0.00623763 C7.51164669 0.00458035 10.24477027 0.01010822 12.97794861 0.01555592 C14.9288102 0.01583776 16.87967191 0.01568011 18.83053344 0.01511341 C24.14436356 0.01482533 29.45817131 0.02072377 34.7719962 0.02768737 C40.31870881 0.03391915 45.86542188 0.03452457 51.41213745 0.03571278 C61.92356821 0.03882662 72.43498863 0.04704071 82.94641483 0.05706227 C94.90993332 0.06822178 106.87345229 0.07373345 118.83697468 0.0787577 C143.45420285 0.08922328 168.07142183 0.10682373 192.68864197 0.12908131 C193.07082964 1.78522788 193.40259298 3.45365155 193.68864197 5.12908131 C191.94945313 6.86827014 189.69512891 6.25149077 187.37728393 6.25816262 C186.60978901 6.25524978 185.84229409 6.25233693 185.05154175 6.24933583 C184.24214395 6.25019025 183.43274616 6.25104468 182.59882116 6.25192499 C179.86563725 6.25358227 177.13251366 6.2480544 174.39933532 6.2426067 C172.44847373 6.24232486 170.49761202 6.24248251 168.54675049 6.2430492 C163.23292037 6.24333729 157.91911262 6.23743885 152.60528773 6.23047525 C147.05857512 6.22424347 141.51186205 6.22363805 135.96514648 6.22244984 C125.45371572 6.219336 114.9422953 6.21112191 104.4308691 6.20110035 C92.46735061 6.18994084 80.50383164 6.18442917 68.54030925 6.17940491 C43.92308108 6.16893934 19.3058621 6.15133888 -5.31135803 6.12908131 C-5.69354571 4.47293474 -6.02530905 2.80451107 -6.31135803 1.12908131 C-4.5721692 -0.61010752 -2.31784498 0.00667185 0 0 Z " fill="#FFD000" transform="translate(156.31135803461075,450.8709186911583)"/>
<path d="M0 0 C4.83831756 2.3295603 7.6006196 5.20123921 10 10 C10.85792994 15.91018406 9.91009187 19.41903138 6.4765625 24.30078125 C3.69985937 27.49619359 0.98384875 28.71812221 -3.171875 29.30859375 C-7.18152539 29.53060459 -9.63589411 29.17174806 -13.3125 27.4375 C-17.58396027 23.56338487 -20.16307627 19.81120376 -20.5 13.9375 C-19.76983114 8.18742026 -17.60347723 5.45076512 -13.375 1.625 C-8.79729761 -0.57907893 -4.99447589 -0.7971639 0 0 Z " fill="#FFD105" transform="translate(153,177)"/>
</svg>
