<?xml version="1.0" encoding="UTF-8"?>
<svg version="1.1" xmlns="http://www.w3.org/2000/svg" width="500" height="500">
<path d="M0 0 C1.91561433 -0.00445668 1.91561433 -0.00445668 3.86992794 -0.0090034 C7.39913096 -0.01703093 10.92831359 -0.01886059 14.45752466 -0.01960087 C18.27029292 -0.02145891 22.08305079 -0.02901006 25.89581299 -0.03573608 C34.22679207 -0.04929057 42.55776633 -0.05533986 50.88875461 -0.05974674 C56.09714341 -0.06251453 61.30553037 -0.0667529 66.51391792 -0.07125092 C80.95244321 -0.08344072 95.39096702 -0.09374001 109.82949734 -0.09712601 C110.75276975 -0.09734557 111.67604216 -0.09756514 112.62729252 -0.09779136 C114.01540161 -0.09811878 114.01540161 -0.09811878 115.4315533 -0.09845281 C117.3065875 -0.09889626 119.18162169 -0.09934283 121.05665588 -0.09979248 C121.98672563 -0.10001391 122.91679538 -0.10023534 123.87504906 -0.10046348 C138.93008491 -0.10440765 153.98507224 -0.12185132 169.04008936 -0.145152 C184.52046652 -0.16891629 200.00081938 -0.18133019 215.48121506 -0.18249393 C224.16326896 -0.18340793 232.84525966 -0.18909064 241.52729607 -0.20731354 C248.92342102 -0.22278334 256.31946324 -0.22779476 263.71560132 -0.21957543 C267.48279602 -0.21569288 271.24982449 -0.21647982 275.01699829 -0.23063278 C306.29031034 -0.34122691 335.18868334 3.26904826 359.23170471 25.14044189 C360.67803284 26.44755127 360.67803284 26.44755127 362.15357971 27.78106689 C380.57856893 45.00180845 392.46388866 69.51858596 393.32581568 94.91319549 C393.36634606 98.2453972 393.37457951 101.57628676 393.37214661 104.90873718 C393.37660329 106.82435151 393.37660329 106.82435151 393.38115001 108.77866513 C393.38917754 112.30786814 393.3910072 115.83705077 393.39174747 119.36626184 C393.39360551 123.1790301 393.40115667 126.99178797 393.40788269 130.80455017 C393.42143717 139.13552926 393.42748647 147.46650351 393.43189335 155.79749179 C393.43466114 161.00588059 393.4388995 166.21426755 393.44339752 171.42265511 C393.45558733 185.86118039 393.46588662 200.2997042 393.46927261 214.73823452 C393.46949218 215.66150693 393.46971175 216.58477934 393.46993797 217.5360297 C393.47015624 218.46143576 393.47037452 219.38684182 393.47059941 220.34029049 C393.47104287 222.21532468 393.47148943 224.09035887 393.47193909 225.96539307 C393.47216052 226.89546282 393.47238195 227.82553256 393.47261009 228.78378624 C393.47655426 243.83882209 393.49399793 258.89380942 393.51729861 273.94882654 C393.5410629 289.4292037 393.5534768 304.90955656 393.55464053 320.38995224 C393.55555454 329.07200614 393.56123725 337.75399685 393.57946014 346.43603325 C393.59492995 353.8321582 393.59994137 361.22820043 393.59172204 368.6243385 C393.58783948 372.39153321 393.58862643 376.15856168 393.60277939 379.92573547 C393.71337351 411.19904752 390.10309835 440.09742052 368.23170471 464.14044189 C366.92459534 465.58677002 366.92459534 465.58677002 365.59107971 467.06231689 C348.37033815 485.48730612 323.85356065 497.37262585 298.45895112 498.23455286 C295.12674941 498.27508324 291.79585985 498.28331669 288.46340942 498.28088379 C286.54779509 498.28534047 286.54779509 498.28534047 284.59348148 498.28988719 C281.06427846 498.29791472 277.53509583 498.29974438 274.00588477 498.30048466 C270.1931165 498.30234269 266.38035864 498.30989385 262.56759644 498.31661987 C254.23661735 498.33017436 245.90564309 498.33622365 237.57465482 498.34063053 C232.36626602 498.34339832 227.15787906 498.34763669 221.9494915 498.3521347 C207.51096622 498.36432451 193.0724424 498.3746238 178.63391209 498.3780098 C177.71063968 498.37822936 176.78736727 498.37844893 175.83611691 498.37867515 C174.44800782 498.37900256 174.44800782 498.37900256 173.03185612 498.3793366 C171.15682193 498.37978005 169.28178773 498.38022661 167.40675354 498.38067627 C166.47668379 498.3808977 165.54661404 498.38111913 164.58836036 498.38134727 C149.53332452 498.38529144 134.47833719 498.40273511 119.42332006 498.42603579 C103.94294291 498.44980008 88.46259004 498.46221398 72.98219436 498.46337771 C64.30014046 498.46429172 55.61814976 498.46997443 46.93611336 498.48819733 C39.53998841 498.50366713 32.14394618 498.50867855 24.74780811 498.50045922 C20.9806134 498.49657667 17.21358493 498.49736361 13.44641113 498.51151657 C-17.82690092 498.6221107 -46.72527392 495.01183553 -70.76829529 473.14044189 C-72.21462341 471.83333252 -72.21462341 471.83333252 -73.69017029 470.49981689 C-92.11515951 453.27907534 -104.00047924 428.76229783 -104.86240625 403.3676883 C-104.90293664 400.03548659 -104.91117008 396.70459703 -104.90873718 393.37214661 C-104.9117083 392.09507039 -104.91467943 390.81799416 -104.91774058 389.50221866 C-104.92576811 385.97301565 -104.92759777 382.44383301 -104.92833805 378.91462195 C-104.93019609 375.10185369 -104.93774725 371.28909582 -104.94447327 367.47633362 C-104.95802775 359.14535453 -104.96407704 350.81438028 -104.96848392 342.483392 C-104.97125171 337.2750032 -104.97549008 332.06661624 -104.9799881 326.85822868 C-104.9921779 312.4197034 -105.0024772 297.98117959 -105.00586319 283.54264927 C-105.00608276 282.61937686 -105.00630232 281.69610445 -105.00652854 280.74485409 C-105.00674682 279.81944803 -105.0069651 278.89404197 -105.00718999 277.9405933 C-105.00763345 276.06555911 -105.00808001 274.19052492 -105.00852966 272.31549072 C-105.00875109 271.38542097 -105.00897252 270.45535122 -105.00920066 269.49709754 C-105.01314483 254.4420617 -105.03058851 239.38707437 -105.05388919 224.33205725 C-105.07765347 208.85168009 -105.09006738 193.37132722 -105.09123111 177.89093155 C-105.09214511 169.20887765 -105.09782783 160.52688694 -105.11605072 151.84485054 C-105.13152052 144.44872559 -105.13653194 137.05268336 -105.12831262 129.65654529 C-105.12443006 125.88935058 -105.12521701 122.12232211 -105.13936996 118.35514832 C-105.24996409 87.08183626 -101.63968892 58.18346327 -79.76829529 34.14044189 C-78.89688904 33.17622314 -78.02548279 32.21200439 -77.12767029 31.21856689 C-56.69617623 9.35829703 -29.51183945 -0.02154551 0 0 Z " fill="#FEFEFE" transform="translate(105.76829528808594,0.85955810546875)"/>
<path d="M0 0 C7.91214706 5.65344292 14.38666658 13.88324249 16.10708618 23.60455322 C16.62575052 28.07216373 16.71471882 32.43232052 16.72021484 36.92480469 C16.72529556 37.84140366 16.73037628 38.75800262 16.73561096 39.70237732 C16.74627308 41.68514822 16.75490939 43.66793085 16.76173019 45.65071869 C16.77360799 48.80702271 16.79308766 51.96319528 16.81484985 55.1194458 C16.87613479 64.09146628 16.93023434 73.06347433 16.96386719 82.03564453 C16.98503182 87.53575256 17.02051114 93.03562146 17.06462479 98.53559113 C17.07862103 100.61317342 17.08746941 102.69079803 17.09067917 104.76842499 C17.11975667 121.80194122 18.28998726 138.45511895 23.75 154.71484375 C24.05043213 155.63064209 24.35086426 156.54644043 24.66040039 157.48999023 C27.52682882 165.9329383 31.18065371 173.77484647 35.5625 181.52734375 C36.18898438 182.65398437 36.81546875 183.780625 37.4609375 184.94140625 C42.3222817 193.25529695 48.09367647 200.44181696 54.5625 207.52734375 C55.02108398 208.03652344 55.47966797 208.54570312 55.95214844 209.0703125 C68.175699 222.49292695 83.04041382 232.18697794 99.5625 239.52734375 C100.18334473 239.80803711 100.80418945 240.08873047 101.44384766 240.37792969 C114.65548548 246.27678875 129.37005439 250.50173686 143.90234375 250.73828125 C194.96031383 251.83699278 238.5835658 264.840388 274.80078125 302.421875 C300.05149456 329.45215029 315.70054886 367.23169323 315.57666016 404.29150391 C315.5735936 405.48726547 315.5735936 405.48726547 315.57046509 406.70718384 C315.56783661 407.30783661 315.56520813 407.90848938 315.5625 408.52734375 C276.12141072 408.59595854 236.6803292 408.64884641 197.2391922 408.68053974 C192.58646332 408.68429201 187.93373456 408.68817497 183.28100586 408.69213867 C182.35470221 408.6929256 181.42839856 408.69371253 180.47402511 408.69452331 C165.46075913 408.70758955 150.44752749 408.73125008 135.43428191 408.75880214 C120.03785061 408.78682249 104.64143734 408.80351286 89.24498159 408.80960923 C79.738833 408.81373269 70.23278146 408.82677233 60.72666273 408.85109315 C54.21455391 408.86690877 47.70249551 408.87175362 41.19036885 408.86784788 C37.42901063 408.8659198 33.6678224 408.8689468 29.90649414 408.88496017 C25.83490437 408.90216854 21.76367999 408.8963351 17.69206238 408.8881073 C16.49460693 408.89684582 15.29715148 408.90558435 14.06340951 408.91458768 C12.97758373 408.90861453 11.89175796 408.90264139 10.77302837 408.89648724 C9.36217749 408.89819598 9.36217749 408.89819598 7.92282456 408.89993924 C5.5625 408.52734375 5.5625 408.52734375 3.76134187 407.20837861 C1.79981808 404.45789921 2.13213412 401.41217683 2.14599609 398.15698242 C2.13311806 397.03425934 2.13311806 397.03425934 2.11997986 395.88885498 C2.09484053 393.40757922 2.09052949 390.92670424 2.0859375 388.4453125 C2.07161756 386.71192721 2.05585877 384.97855326 2.03872681 383.24519348 C1.99679171 378.66881596 1.97187121 374.09250849 1.95123291 369.51599121 C1.9155172 362.23093966 1.85371775 354.94606352 1.79274368 347.66118813 C1.77391635 345.13457366 1.76199078 342.60800503 1.75131226 340.0813446 C1.49050448 294.09740895 -10.08381419 251.60856356 -33.5625 211.98828125 C-37.06522941 205.52282654 -39.77024775 198.68910127 -42.49804688 191.86743164 C-43.13900927 190.2708556 -43.79189358 188.67902686 -44.45507812 187.09155273 C-58.20364932 153.83214154 -58.09492545 118.56990879 -57.95898438 83.23388672 C-57.93598835 77.18993548 -57.94949549 71.14668703 -57.97327423 65.10276031 C-57.98776007 60.40137467 -57.98311694 55.70015479 -57.97276306 50.99876404 C-57.97011432 48.76940322 -57.97329948 46.54002686 -57.98268127 44.3106842 C-58.0366215 27.92892247 -57.25164159 15.90192849 -45.4375 3.52734375 C-33.26063795 -8.21771468 -13.91745165 -8.40846037 0 0 Z " fill="#27BB36" transform="translate(128.4375,48.47265625)"/>
<path d="M0 0 C1.30904297 0.29003906 1.30904297 0.29003906 2.64453125 0.5859375 C17.65078429 4.41838023 33.61883805 13.65761935 44 25 C44.825 25.804375 45.65 26.60875 46.5 27.4375 C47.325 28.283125 48.15 29.12875 49 30 C49.51046875 30.51433594 50.0209375 31.02867188 50.546875 31.55859375 C69.2809679 51.53876164 74.75736697 77.14731506 74.40234375 103.68359375 C73.45862973 129.5534483 59.93496003 153.36346931 41.51953125 170.88671875 C31.95588878 179.59143179 21.07048536 185.50536962 9 190 C7.98164063 190.38929688 6.96328125 190.77859375 5.9140625 191.1796875 C-18.00466783 199.78038581 -44.07383946 197.39886857 -67 187 C-90.8521153 175.70162959 -108.35781517 156.41507352 -118 132 C-119.48598947 127.70387204 -120.80996672 123.38689542 -122 119 C-122.3609375 117.83984375 -122.721875 116.6796875 -123.09375 115.484375 C-124.58178398 109.44229507 -124.28894517 103.24504608 -124.25 97.0625 C-124.25773438 95.83853516 -124.26546875 94.61457031 -124.2734375 93.35351562 C-124.25892866 86.61053108 -123.81824183 80.49458664 -122 74 C-121.78859375 73.07832031 -121.5771875 72.15664062 -121.359375 71.20703125 C-116.93363873 53.8161573 -108.32090149 39.87321777 -96 27 C-95.31421875 26.23945312 -94.6284375 25.47890625 -93.921875 24.6953125 C-70.14938081 -0.75006091 -32.86181093 -8.01873152 0 0 Z " fill="#27BB36" transform="translate(308,67)"/>
</svg>
