<?xml version="1.0" encoding="UTF-8"?>
<svg version="1.1" xmlns="http://www.w3.org/2000/svg" width="500" height="500">
<path d="M0 0 C1.91561433 -0.00445668 1.91561433 -0.00445668 3.86992794 -0.0090034 C7.39913096 -0.01703093 10.92831359 -0.01886059 14.45752466 -0.01960087 C18.27029292 -0.02145891 22.08305079 -0.02901006 25.89581299 -0.03573608 C34.22679207 -0.04929057 42.55776633 -0.05533986 50.88875461 -0.05974674 C56.09714341 -0.06251453 61.30553037 -0.0667529 66.51391792 -0.07125092 C80.95244321 -0.08344072 95.39096702 -0.09374001 109.82949734 -0.09712601 C110.75276975 -0.09734557 111.67604216 -0.09756514 112.62729252 -0.09779136 C114.01540161 -0.09811878 114.01540161 -0.09811878 115.4315533 -0.09845281 C117.3065875 -0.09889626 119.18162169 -0.09934283 121.05665588 -0.09979248 C121.98672563 -0.10001391 122.91679538 -0.10023534 123.87504906 -0.10046348 C138.93008491 -0.10440765 153.98507224 -0.12185132 169.04008936 -0.145152 C184.52046652 -0.16891629 200.00081938 -0.18133019 215.48121506 -0.18249393 C224.16326896 -0.18340793 232.84525966 -0.18909064 241.52729607 -0.20731354 C248.92342102 -0.22278334 256.31946324 -0.22779476 263.71560132 -0.21957543 C267.48279602 -0.21569288 271.24982449 -0.21647982 275.01699829 -0.23063278 C306.29031034 -0.34122691 335.18868334 3.26904826 359.23170471 25.14044189 C360.67803284 26.44755127 360.67803284 26.44755127 362.15357971 27.78106689 C380.57856893 45.00180845 392.46388866 69.51858596 393.32581568 94.91319549 C393.36634606 98.2453972 393.37457951 101.57628676 393.37214661 104.90873718 C393.37660329 106.82435151 393.37660329 106.82435151 393.38115001 108.77866513 C393.38917754 112.30786814 393.3910072 115.83705077 393.39174747 119.36626184 C393.39360551 123.1790301 393.40115667 126.99178797 393.40788269 130.80455017 C393.42143717 139.13552926 393.42748647 147.46650351 393.43189335 155.79749179 C393.43466114 161.00588059 393.4388995 166.21426755 393.44339752 171.42265511 C393.45558733 185.86118039 393.46588662 200.2997042 393.46927261 214.73823452 C393.46949218 215.66150693 393.46971175 216.58477934 393.46993797 217.5360297 C393.47015624 218.46143576 393.47037452 219.38684182 393.47059941 220.34029049 C393.47104287 222.21532468 393.47148943 224.09035887 393.47193909 225.96539307 C393.47216052 226.89546282 393.47238195 227.82553256 393.47261009 228.78378624 C393.47655426 243.83882209 393.49399793 258.89380942 393.51729861 273.94882654 C393.5410629 289.4292037 393.5534768 304.90955656 393.55464053 320.38995224 C393.55555454 329.07200614 393.56123725 337.75399685 393.57946014 346.43603325 C393.59492995 353.8321582 393.59994137 361.22820043 393.59172204 368.6243385 C393.58783948 372.39153321 393.58862643 376.15856168 393.60277939 379.92573547 C393.71337351 411.19904752 390.10309835 440.09742052 368.23170471 464.14044189 C366.92459534 465.58677002 366.92459534 465.58677002 365.59107971 467.06231689 C348.37033815 485.48730612 323.85356065 497.37262585 298.45895112 498.23455286 C295.12674941 498.27508324 291.79585985 498.28331669 288.46340942 498.28088379 C286.54779509 498.28534047 286.54779509 498.28534047 284.59348148 498.28988719 C281.06427846 498.29791472 277.53509583 498.29974438 274.00588477 498.30048466 C270.1931165 498.30234269 266.38035864 498.30989385 262.56759644 498.31661987 C254.23661735 498.33017436 245.90564309 498.33622365 237.57465482 498.34063053 C232.36626602 498.34339832 227.15787906 498.34763669 221.9494915 498.3521347 C207.51096622 498.36432451 193.0724424 498.3746238 178.63391209 498.3780098 C177.71063968 498.37822936 176.78736727 498.37844893 175.83611691 498.37867515 C174.44800782 498.37900256 174.44800782 498.37900256 173.03185612 498.3793366 C171.15682193 498.37978005 169.28178773 498.38022661 167.40675354 498.38067627 C166.47668379 498.3808977 165.54661404 498.38111913 164.58836036 498.38134727 C149.53332452 498.38529144 134.47833719 498.40273511 119.42332006 498.42603579 C103.94294291 498.44980008 88.46259004 498.46221398 72.98219436 498.46337771 C64.30014046 498.46429172 55.61814976 498.46997443 46.93611336 498.48819733 C39.53998841 498.50366713 32.14394618 498.50867855 24.74780811 498.50045922 C20.9806134 498.49657667 17.21358493 498.49736361 13.44641113 498.51151657 C-17.82690092 498.6221107 -46.72527392 495.01183553 -70.76829529 473.14044189 C-72.21462341 471.83333252 -72.21462341 471.83333252 -73.69017029 470.49981689 C-92.11515951 453.27907534 -104.00047924 428.76229783 -104.86240625 403.3676883 C-104.90293664 400.03548659 -104.91117008 396.70459703 -104.90873718 393.37214661 C-104.9117083 392.09507039 -104.91467943 390.81799416 -104.91774058 389.50221866 C-104.92576811 385.97301565 -104.92759777 382.44383301 -104.92833805 378.91462195 C-104.93019609 375.10185369 -104.93774725 371.28909582 -104.94447327 367.47633362 C-104.95802775 359.14535453 -104.96407704 350.81438028 -104.96848392 342.483392 C-104.97125171 337.2750032 -104.97549008 332.06661624 -104.9799881 326.85822868 C-104.9921779 312.4197034 -105.0024772 297.98117959 -105.00586319 283.54264927 C-105.00608276 282.61937686 -105.00630232 281.69610445 -105.00652854 280.74485409 C-105.00674682 279.81944803 -105.0069651 278.89404197 -105.00718999 277.9405933 C-105.00763345 276.06555911 -105.00808001 274.19052492 -105.00852966 272.31549072 C-105.00875109 271.38542097 -105.00897252 270.45535122 -105.00920066 269.49709754 C-105.01314483 254.4420617 -105.03058851 239.38707437 -105.05388919 224.33205725 C-105.07765347 208.85168009 -105.09006738 193.37132722 -105.09123111 177.89093155 C-105.09214511 169.20887765 -105.09782783 160.52688694 -105.11605072 151.84485054 C-105.13152052 144.44872559 -105.13653194 137.05268336 -105.12831262 129.65654529 C-105.12443006 125.88935058 -105.12521701 122.12232211 -105.13936996 118.35514832 C-105.24996409 87.08183626 -101.63968892 58.18346327 -79.76829529 34.14044189 C-78.89688904 33.17622314 -78.02548279 32.21200439 -77.12767029 31.21856689 C-56.69617623 9.35829703 -29.51183945 -0.02154551 0 0 Z " fill="#FEFEFE" transform="translate(105.76829528808594,0.85955810546875)"/>
<path d="M0 0 C2.90432575 2.26679083 5.1066273 4.74882342 7.4765625 7.55859375 C9.93615715 10.4373328 12.49348154 13.21947688 15.0625 16 C26.53189901 28.46173695 26.53189901 28.46173695 29.27539062 32.55664062 C32.8691155 36.39588044 36.27122024 35.85502198 41.3137207 36.05078125 C53.04562752 36.67919429 53.04562752 36.67919429 63.609375 32.58984375 C66.47643912 29.73310294 68.49425148 26.46281443 70.5625 23 C71.6742406 21.65849968 72.81709418 20.34168885 74 19.0625 C74.53109375 18.45148437 75.0621875 17.84046875 75.609375 17.2109375 C78.29184519 14.17438124 81.01460644 11.17639175 83.75 8.1875 C84.26167725 7.62361572 84.77335449 7.05973145 85.30053711 6.47875977 C86.69533918 4.96165868 88.12769561 3.47932582 89.5625 2 C90.17738281 1.35675781 90.79226563 0.71351562 91.42578125 0.05078125 C95.25084325 -1.83028214 99.68685261 -0.59566625 103.62550354 0.65516663 C105.77639824 1.47976012 107.89245754 2.36157638 110.0078125 3.2734375 C110.7813205 3.59784821 111.55482849 3.92225891 112.35177612 4.25650024 C114.80106532 5.28670111 117.2441452 6.33081477 119.6875 7.375 C121.33426823 8.06858079 122.98140089 8.76129699 124.62890625 9.453125 C128.95176756 11.27649336 133.27166252 13.10231609 137.5625 15 C138.63870605 15.46486816 139.71491211 15.92973633 140.82373047 16.40869141 C144.17597645 18.35644852 145.71804034 19.55275104 147.5625 23 C147.86173458 26.65725136 147.5041133 30.21632896 147.171875 33.86328125 C147.03658276 36.05250394 146.90520153 38.24197116 146.77734375 40.43164062 C146.55803934 43.86163001 146.31524003 47.28251714 146.00244141 50.70532227 C144.47417301 65.17055935 144.47417301 65.17055935 149.8828125 78.13598633 C154.47650188 83.24582327 159.52218327 88.81690229 166.58007812 89.96142578 C169.25470526 90.03905447 171.61058997 90.06763058 174.234375 89.640625 C180.83845939 88.76256382 187.47013064 88.60226809 194.12133789 88.39083862 C196.28485779 88.31348827 198.44541916 88.20739102 200.60742188 88.09594727 C201.96221346 88.03860476 203.31703042 87.98185781 204.671875 87.92578125 C205.87811523 87.86817627 207.08435547 87.81057129 208.32714844 87.7512207 C212.04913701 88.03741949 213.66715924 88.66513626 216.5625 91 C220.11474353 95.53228852 222.28092735 100.53007066 224.48828125 105.80078125 C224.84012985 106.63659225 225.19197845 107.47240326 225.55448914 108.33354187 C226.29171115 110.09444326 227.02519474 111.85691397 227.75512695 113.62084961 C228.87057572 116.30186609 230.01393241 118.96985401 231.15820312 121.63867188 C231.87415463 123.35864394 232.58840449 125.07932552 233.30078125 126.80078125 C233.64337479 127.58858475 233.98596832 128.37638824 234.33894348 129.18806458 C236.55783859 134.67772888 237.06182353 139.21084075 235.5625 145 C233.99609375 147.3828125 233.99609375 147.3828125 232 149.125 C231.27296875 149.77984375 230.5459375 150.4346875 229.796875 151.109375 C229.05953125 151.73328125 228.3221875 152.3571875 227.5625 153 C226.92828125 153.56203125 226.2940625 154.1240625 225.640625 154.703125 C224.35544903 155.83960292 223.06212752 156.9669217 221.76171875 158.0859375 C218.2748416 161.12069737 214.87783501 164.25342819 211.46875 167.375 C208.5625 170 208.5625 170 206.47045898 171.4140625 C203.02654793 173.90450514 200.90660475 175.67992563 199.81103516 179.8828125 C199.52112215 183.28993169 199.51964803 186.58276523 199.625 190 C199.60244141 191.14984375 199.57988281 192.2996875 199.55664062 193.484375 C199.62483382 199.12167938 199.81377646 202.98963402 203.89453125 207.11328125 C205.09363591 208.10471523 206.31658706 209.0680696 207.5625 210 C208.77675574 211.05572662 209.98578754 212.11751735 211.1875 213.1875 C211.8475 213.75597656 212.5075 214.32445312 213.1875 214.91015625 C216.79642715 218.08577471 220.30639476 221.36748129 223.81884766 224.64916992 C226.4311425 227.07875605 229.06433254 229.43248566 231.8359375 231.6796875 C235.01555223 234.38554875 236.43539514 235.89562909 236.91772461 240.08642578 C236.46348645 245.09085027 234.85087219 249.03080811 232.87890625 253.6171875 C232.50394516 254.51494904 232.12898407 255.41271057 231.74266052 256.337677 C230.54831633 259.18846589 229.33665106 262.03153051 228.125 264.875 C227.31336991 266.80944171 226.50281127 268.74433333 225.69335938 270.6796875 C224.21390756 274.20036986 222.73421392 277.72089902 221.23657227 281.23388672 C220.78689842 282.29142654 220.78689842 282.29142654 220.32814026 283.37033081 C219.5625 285 219.5625 285 218.5625 286 C216.90259365 286.2400936 215.23329656 286.4163053 213.5625 286.5625 C212.655 286.64628906 211.7475 286.73007812 210.8125 286.81640625 C209.74 286.87699219 208.6675 286.93757813 207.5625 287 C206.89058719 287.07436468 206.21867437 287.14872936 205.52640057 287.22534752 C201.19154366 287.52741141 198.3909699 287.3706781 194.96113586 284.56167603 C193.76842086 283.43107184 192.59924504 282.27529153 191.45043945 281.10009766 C190.80217697 280.47242493 190.15391449 279.8447522 189.48600769 279.19805908 C187.35909989 277.12586132 185.26693179 275.02229582 183.17578125 272.9140625 C181.70520931 271.45717889 180.23352756 270.00141474 178.76078796 268.54672241 C175.68370267 265.49640969 172.62420276 262.42968506 169.57543945 259.35107422 C165.66838463 255.40951036 161.71573043 251.51758729 157.74792194 247.63730812 C154.69924007 244.64368431 151.67899371 241.62259602 148.66631126 238.59278488 C147.21984874 237.14586255 145.76404931 235.70821153 144.29888344 234.28023148 C142.25290383 232.27895281 140.24899196 230.24310135 138.2512207 228.19384766 C137.64102081 227.61265167 137.03082092 227.03145569 136.40213013 226.43264771 C134.70972439 224.64770667 133.53757075 223.26218734 132.5625 221 C132.66934226 217.46945241 133.51728103 214.35686083 134.5625 211 C137.58489877 195.77606545 137.76512898 181.0093892 133.5625 166 C133.16224609 164.51306641 133.16224609 164.51306641 132.75390625 162.99609375 C128.78196562 149.73863859 121.86811177 138.19186051 112.5625 128 C111.90378906 127.27167969 111.24507813 126.54335937 110.56640625 125.79296875 C95.48966006 109.92749942 73.25457536 100.48195306 51.51953125 99.6640625 C24.10157217 99.26306053 0.35301022 106.75041745 -19.75 126.2421875 C-38.81860127 146.43636593 -45.50586348 170.253117 -44.84375 197.57421875 C-43.7499422 220.69116301 -32.4858927 241.79569557 -16.01171875 257.71484375 C2.87047732 274.47673253 27.11786025 282.55534341 52.14208984 281.20214844 C59.27891167 280.60609352 66.55216137 279.30617858 73.35942078 277.08903503 C76.5625 277 76.5625 277 79.74494934 279.3339386 C80.9127833 280.4784299 82.06145044 281.64267201 83.19458008 282.8215332 C83.82783203 283.45215668 84.46108398 284.08278015 85.11352539 284.73251343 C87.20351426 286.82228054 89.267506 288.93587875 91.33203125 291.05078125 C92.77691697 292.50618551 94.22328307 293.96012146 95.67106628 295.41264343 C99.47912884 299.24176687 103.26528015 303.09188608 107.04772949 306.94628906 C110.14372089 310.0940833 113.25457413 313.22695088 116.36639881 316.35908222 C122.7856792 322.82066667 129.19538309 329.29187229 135.57739258 335.7902832 C136.17216904 336.3924617 136.7669455 336.9946402 137.37974548 337.61506653 C142.55087534 342.89631078 142.55087534 342.89631078 142.58422852 346.06298828 C142.51353149 347.30411377 142.51353149 347.30411377 142.44140625 348.5703125 C142.39306641 349.46621094 142.34472656 350.36210937 142.29492188 351.28515625 C142.23884766 352.22230469 142.18277344 353.15945313 142.125 354.125 C142.07279297 355.06988281 142.02058594 356.01476562 141.96679688 356.98828125 C141.83693239 359.3258419 141.7019613 361.66299545 141.5625 364 C115.26262565 374.81204229 115.26262565 374.81204229 105.25 378.6875 C104.07824219 379.14511719 102.90648437 379.60273438 101.69921875 380.07421875 C98.43122475 381.038745 95.94809409 381.32995197 92.5625 381 C88.23961702 378.05676052 85.05683677 374.40002181 81.6796875 370.4375 C79.0385291 367.39675675 76.30402531 364.45010124 73.5625 361.5 C69.59285681 357.22192145 65.67518815 352.9120034 61.8671875 348.48828125 C58.18488769 344.2878135 55.40467689 344.37008054 49.95239258 343.95898438 C37.93882265 343.29144148 37.93882265 343.29144148 27.52734375 348.51171875 C24.06326421 351.99645958 21.06722828 355.7799108 18.20385742 359.76733398 C16.02361531 362.73302104 13.60615712 365.44634765 11.15844727 368.19189453 C9.79472516 369.73690385 8.48681372 371.3308738 7.19140625 372.93359375 C3.97457208 376.83149678 1.63754484 379.58091472 -3.125 381.4375 C-13.23607927 381.46601334 -25.28732304 374.58799851 -34.60913086 370.77050781 C-35.88354145 370.25119989 -37.16030733 369.73763944 -38.43920898 369.22949219 C-40.33060419 368.47780527 -42.21453685 367.7096492 -44.09765625 366.9375 C-45.19730713 366.49277344 -46.29695801 366.04804688 -47.42993164 365.58984375 C-51.32876024 363.52886706 -54.44015177 360.99469645 -56.4375 357 C-56.78451519 349.66164941 -56.49716219 342.29548803 -56.07348633 334.96582031 C-55.98227055 333.3537411 -55.90150137 331.74103926 -55.83081055 330.12792969 C-55.66025222 326.30403505 -55.404008 322.57950672 -54.80859375 318.796875 C-53.96549594 312.22342143 -54.50406932 307.85755644 -58.37109375 302.44921875 C-63.07242103 296.79099497 -68.37283864 291.08504195 -75.9453125 289.96484375 C-79.76414981 289.78527069 -83.46747488 290.15110801 -87.24560547 290.69482422 C-90.65676534 291.16975737 -94.06095842 291.31364799 -97.5 291.5 C-99.42972656 291.62761719 -99.42972656 291.62761719 -101.3984375 291.7578125 C-105.80658066 292.03018912 -110.20980953 292.25702055 -114.625 292.375 C-115.33213135 292.41302734 -116.0392627 292.45105469 -116.76782227 292.49023438 C-120.35212392 292.5490005 -122.12559568 292.25281468 -124.9362793 289.97460938 C-127.89079945 286.46090771 -129.42563167 283.11536909 -131.1015625 278.8828125 C-131.42031342 278.10743134 -131.73906433 277.33205017 -132.06747437 276.53317261 C-133.07768161 274.06842803 -134.07038823 271.59707617 -135.0625 269.125 C-135.73581113 267.47217994 -136.41027976 265.81983092 -137.0859375 264.16796875 C-138.33099854 261.1215314 -139.56841164 258.0722006 -140.79931641 255.02001953 C-141.86381635 252.38096483 -142.97244686 249.76809067 -144.11865234 247.16357422 C-145.58194715 243.65350867 -146.06268513 241.75111076 -145.4375 238 C-142.0373862 232.15605441 -137.56603394 228.30976799 -132.4375 224 C-130.82742567 222.56911999 -129.22353686 221.13125789 -127.625 219.6875 C-126.79355469 218.93855469 -125.96210937 218.18960938 -125.10546875 217.41796875 C-123.20666671 215.69709252 -121.31342707 213.97129113 -119.42578125 212.23828125 C-118.92731689 211.78171143 -118.42885254 211.3251416 -117.9152832 210.85473633 C-116.50432278 209.56125881 -115.09584856 208.26507084 -113.6875 206.96875 C-111.4375 205 -111.4375 205 -109.4375 204 C-109.23322771 199.64653096 -109.10953476 195.29430103 -109 190.9375 C-108.94134766 189.70837891 -108.88269531 188.47925781 -108.82226562 187.21289062 C-108.56702357 180.6400737 -108.56702357 180.6400737 -110.89941406 174.67895508 C-112.65623554 172.91070446 -114.42055131 171.45892359 -116.4375 170 C-117.65343618 168.94620927 -118.86267565 167.88459945 -120.0625 166.8125 C-120.7225 166.24402344 -121.3825 165.67554688 -122.0625 165.08984375 C-125.67142715 161.91422529 -129.18139476 158.63251871 -132.69384766 155.35083008 C-135.3220632 152.90643677 -137.97426437 150.5303759 -140.75 148.25390625 C-144.12813209 145.42079257 -145.23784761 143.83011732 -145.71166992 139.48681641 C-145.32802986 134.60778938 -143.56483482 130.63096734 -141.67578125 126.1484375 C-141.09427559 124.74375717 -141.09427559 124.74375717 -140.50102234 123.31069946 C-139.67997058 121.33672276 -138.85341446 119.36502768 -138.02172852 117.39550781 C-136.75445731 114.38558664 -135.51405744 111.36553635 -134.27539062 108.34375 C-133.47295973 106.42380734 -132.66897475 104.50451331 -131.86328125 102.5859375 C-131.49535965 101.68483246 -131.12743805 100.78372742 -130.74836731 99.85531616 C-128.33944662 94.22624607 -126.0774043 90.81995215 -120.4375 88 C-118.94521576 88.01899944 -117.45354411 88.10806592 -115.96630859 88.23217773 C-110.72343297 88.63694667 -105.48138429 88.94935989 -100.23046875 89.23071289 C-97.97500063 89.36716871 -95.72101599 89.53132681 -93.46972656 89.72485352 C-79.1556188 91.11512498 -79.1556188 91.11512498 -66.31958008 85.72143555 C-60.77841773 80.78556891 -55.4929202 75.84975902 -54.47412109 68.22021484 C-54.32108721 65.23176259 -54.32837685 62.33554994 -54.80859375 59.375 C-55.38602904 55.39653179 -55.70350084 51.45377652 -55.9375 47.4375 C-56.02257812 46.24125 -56.10765625 45.045 -56.1953125 43.8125 C-56.46802463 39.51948331 -56.69729953 35.23754326 -56.8125 30.9375 C-56.85052734 30.23488037 -56.88855469 29.53226074 -56.92773438 28.80834961 C-57.00178362 24.27882234 -56.01010428 21.80864718 -53.03329468 18.43760681 C-50.17817039 15.86550516 -46.86645803 14.61767581 -43.3203125 13.23828125 C-42.54493134 12.92094528 -41.76955017 12.60360931 -40.97067261 12.2766571 C-38.50740723 11.27261427 -36.03553266 10.29220326 -33.5625 9.3125 C-31.90952107 8.64414692 -30.25717002 7.97423874 -28.60546875 7.30273438 C-24.88054824 5.79032317 -21.14859088 4.29641442 -17.41412354 2.80776978 C-15.46257778 2.01024832 -13.53651348 1.16667898 -11.60888672 0.31323242 C-7.30845009 -1.46752575 -4.33478179 -1.77837202 0 0 Z " fill="#EA3829" transform="translate(185.4375,41)"/>
<path d="M0 0 C14.39240386 8.18729561 24.13448391 20.41603716 29.45922852 36.06054688 C30.43751197 40.13538044 30.51410868 43.79040347 30.32421875 47.93359375 C30.28432152 49.46936316 30.24595705 51.00517302 30.20898438 52.54101562 C30.14101438 54.92928985 30.06236872 57.31546782 29.95678711 59.70239258 C29.85920493 62.02973963 29.80726748 64.35472105 29.76171875 66.68359375 C29.71931564 67.38592636 29.67691254 68.08825897 29.63322449 68.81187439 C29.58854906 73.14584217 30.48340464 75.39941184 33.41700745 78.61186218 C34.05323186 79.31014791 34.68945627 80.00843363 35.34496021 80.72787952 C38.66479692 84.23918478 42.04415528 87.68319398 45.46582031 91.09521484 C46.63055374 92.26257675 46.63055374 92.26257675 47.81881714 93.45352173 C50.3610935 96.00016492 52.90696889 98.54317377 55.453125 101.0859375 C57.22969936 102.86318604 59.0061253 104.64058296 60.78240967 106.41812134 C64.49263958 110.12982091 68.20461405 113.83976686 71.91796875 117.54833984 C76.20807091 121.8329813 80.49453184 126.12124026 84.77915883 130.41135633 C88.91329443 134.55057528 93.0502349 138.68698035 97.18837738 142.82219315 C98.94502963 144.57817776 100.70093781 146.33490703 102.45609283 148.09238815 C104.90223994 150.54106728 107.35155653 152.98653085 109.80175781 155.43115234 C110.89117172 156.5236026 110.89117172 156.5236026 112.00259399 157.63812256 C112.66973419 158.30244293 113.33687439 158.96676331 114.02423096 159.6512146 C114.60232136 160.22892797 115.18041176 160.80664135 115.77602005 161.40186119 C118.75060374 164.1423425 120.65654372 165.13881647 124.625 165.0625 C125.35203125 165.05605469 126.0790625 165.04960937 126.828125 165.04296875 C129.51873879 164.89942892 129.51873879 164.89942892 132.734375 164.3828125 C147.64522076 162.3029735 162.25767647 164.12785355 174.81640625 172.8984375 C187.33657549 182.57050718 197.0479958 193.96151968 200.375 209.875 C200.59780429 213.66379625 200.56014011 217.45529319 200.5625 221.25 C200.57474609 222.27867187 200.58699219 223.30734375 200.59960938 224.3671875 C200.60971679 229.5960911 200.49792327 233.99143737 198.375 238.875 C195.51706171 239.11918832 193.90642198 239.23823512 191.49641418 237.59095764 C190.9095433 236.9899675 190.32267242 236.38897736 189.71801758 235.76977539 C189.04414505 235.09229752 188.37027252 234.41481964 187.67597961 233.71681213 C186.96435165 232.97624069 186.25272369 232.23566925 185.51953125 231.47265625 C184.40526009 230.34421547 184.40526009 230.34421547 183.26847839 229.19297791 C180.89610439 226.78598278 178.54144571 224.36250822 176.1875 221.9375 C173.81948477 219.51958637 171.4479976 217.10515371 169.0743866 214.69273376 C167.59795332 213.18981702 166.1254383 211.68303938 164.65718079 210.1721344 C163.99276474 209.49150436 163.32834869 208.81087433 162.64379883 208.10961914 C162.05931473 207.5078334 161.47483063 206.90604767 160.87263489 206.286026 C158.02149 203.59976408 154.94900487 203.08472711 151.0625 203.12988281 C144.94529721 204.82589507 140.59152861 210.73713169 136.375 215.25 C135.31846829 216.34314259 134.25989029 217.43431131 133.19921875 218.5234375 C126.87677124 224.38935172 126.87677124 224.38935172 124.0625 232.125 C124.69325371 239.69404452 130.59010781 244.30821451 135.80078125 249.3203125 C137.25106376 250.74046407 138.70092131 252.16104971 140.15039062 253.58203125 C142.42800566 255.8036252 144.709318 258.02106422 146.99829102 260.23095703 C149.214316 262.37476408 151.4146533 264.53368755 153.61328125 266.6953125 C154.30585526 267.35580597 154.99842926 268.01629944 155.71199036 268.69680786 C156.33981918 269.31780365 156.96764801 269.93879944 157.61450195 270.57861328 C158.45245049 271.39085861 158.45245049 271.39085861 159.30732727 272.21951294 C160.375 273.875 160.375 273.875 160.23503113 275.97164917 C159.375 277.875 159.375 277.875 156.375 279.625 C142.72701081 284.01185367 128.04823288 280.42865793 115.50390625 274.5234375 C101.20457634 266.53722828 91.52978067 254.29907028 86.375 238.875 C83.94799404 230.20350995 82.48705195 218.53884415 85.375 209.875 C86.21481508 205.55708286 86.50926891 201.56395215 83.97871399 197.79589844 C83.31325058 197.0949707 82.64778717 196.39404297 81.9621582 195.671875 C81.13922272 194.80103271 80.31628723 193.93019043 79.46841431 193.03295898 C78.43923406 191.97839171 77.40789706 190.9259271 76.375 189.875 C75.7675079 189.25352081 75.16001579 188.63204163 74.53411484 187.99172974 C69.17646488 182.52176198 63.76835153 177.10272614 58.35546875 171.6875 C56.60664263 169.93545623 54.85788998 168.18333913 53.10920715 166.43115234 C49.46235102 162.77833794 45.813464 159.12756622 42.16333008 155.47802734 C37.48308441 150.79788389 32.80979145 146.11086256 28.13817883 141.42210388 C24.53770985 137.81053793 20.93272698 134.20350422 17.32644081 130.5977478 C15.60043107 128.87055741 13.87604404 127.14174383 12.15331078 125.4112854 C9.7529916 123.00119962 7.3464571 120.5974953 4.93823242 118.1953125 C4.22804459 117.47950516 3.51785675 116.76369781 2.78614807 116.02619934 C2.12893768 115.37318344 1.47172729 114.72016754 0.79460144 114.04736328 C0.22740481 113.47962189 -0.33979181 112.91188049 -0.92417622 112.32693481 C-3.32690181 110.27581054 -5.44002772 108.86127445 -8.6484375 108.8984375 C-9.42445313 109.01445312 -10.20046875 109.13046875 -11 109.25 C-31.16377422 111.4152375 -47.91459225 110.58021478 -64.625 97.875 C-75.81869911 88.56010198 -84.1202536 74.4311182 -85.625 59.875 C-85.79772313 56.87333342 -85.85482404 53.88121817 -85.875 50.875 C-85.895625 50.10671875 -85.91625 49.3384375 -85.9375 48.546875 C-85.9736415 43.23407386 -85.0234236 39.62135407 -82.625 34.875 C-78.7528052 35.39435474 -76.80474624 36.19965912 -74.07568359 38.98608398 C-73.42505951 39.64023788 -72.77443542 40.29439178 -72.10409546 40.96836853 C-71.41747833 41.67876785 -70.73086121 42.38916718 -70.0234375 43.12109375 C-69.30515778 43.84740494 -68.58687805 44.57371613 -67.84683228 45.32203674 C-65.55492259 47.6429329 -63.27706337 49.97704422 -61 52.3125 C-58.71326738 54.64174855 -56.42372675 56.96816893 -54.13174438 59.29225159 C-52.70686015 60.73881967 -51.28549061 62.18885992 -49.86801147 63.64268494 C-49.22369171 64.299991 -48.57937195 64.95729706 -47.91552734 65.63452148 C-47.35102875 66.21330551 -46.78653015 66.79208954 -46.20492554 67.38841248 C-43.24924118 70.16948246 -41.76887668 70.86410668 -37.65234375 71.17578125 C-30.43306429 70.17704358 -25.93772662 64.09851389 -21.1875 59.0625 C-20.18730721 58.03929192 -19.18536593 57.01778994 -18.18164062 55.99804688 C-11.35593488 49.47803978 -11.35593488 49.47803978 -8.27392578 40.90698242 C-8.70500941 37.1840147 -9.66067054 36.0397026 -12.2421875 33.36328125 C-13.06428711 32.50299316 -13.88638672 31.64270508 -14.73339844 30.75634766 C-15.6940238 29.79265602 -16.65809761 28.83239356 -17.625 27.875 C-18.15468384 27.35017029 -18.68436768 26.82534058 -19.23010254 26.28460693 C-24.00845205 21.57116654 -28.80608782 16.87502787 -33.65917969 12.23852539 C-35.49749047 10.47858669 -37.31633322 8.70039437 -39.1328125 6.91796875 C-39.98409225 6.11784615 -39.98409225 6.11784615 -40.85256958 5.30155945 C-42.40283203 3.76245117 -42.40283203 3.76245117 -44.625 0.875 C-44.46826172 -2.00268555 -44.46826172 -2.00268555 -43.625 -4.125 C-29.93411751 -9.64977734 -12.72959395 -6.37959883 0 0 Z " fill="#EA392A" transform="translate(258.625,179.125)"/>
</svg>
