<?xml version="1.0" encoding="UTF-8"?>
<svg version="1.1" xmlns="http://www.w3.org/2000/svg" width="500" height="500">
<path d="M0 0 C1.91561433 -0.00445668 1.91561433 -0.00445668 3.86992794 -0.0090034 C7.39913096 -0.01703093 10.92831359 -0.01886059 14.45752466 -0.01960087 C18.27029292 -0.02145891 22.08305079 -0.02901006 25.89581299 -0.03573608 C34.22679207 -0.04929057 42.55776633 -0.05533986 50.88875461 -0.05974674 C56.09714341 -0.06251453 61.30553037 -0.0667529 66.51391792 -0.07125092 C80.95244321 -0.08344072 95.39096702 -0.09374001 109.82949734 -0.09712601 C110.75276975 -0.09734557 111.67604216 -0.09756514 112.62729252 -0.09779136 C114.01540161 -0.09811878 114.01540161 -0.09811878 115.4315533 -0.09845281 C117.3065875 -0.09889626 119.18162169 -0.09934283 121.05665588 -0.09979248 C121.98672563 -0.10001391 122.91679538 -0.10023534 123.87504906 -0.10046348 C138.93008491 -0.10440765 153.98507224 -0.12185132 169.04008936 -0.145152 C184.52046652 -0.16891629 200.00081938 -0.18133019 215.48121506 -0.18249393 C224.16326896 -0.18340793 232.84525966 -0.18909064 241.52729607 -0.20731354 C248.92342102 -0.22278334 256.31946324 -0.22779476 263.71560132 -0.21957543 C267.48279602 -0.21569288 271.24982449 -0.21647982 275.01699829 -0.23063278 C306.29031034 -0.34122691 335.18868334 3.26904826 359.23170471 25.14044189 C360.67803284 26.44755127 360.67803284 26.44755127 362.15357971 27.78106689 C380.57856893 45.00180845 392.46388866 69.51858596 393.32581568 94.91319549 C393.36634606 98.2453972 393.37457951 101.57628676 393.37214661 104.90873718 C393.37660329 106.82435151 393.37660329 106.82435151 393.38115001 108.77866513 C393.38917754 112.30786814 393.3910072 115.83705077 393.39174747 119.36626184 C393.39360551 123.1790301 393.40115667 126.99178797 393.40788269 130.80455017 C393.42143717 139.13552926 393.42748647 147.46650351 393.43189335 155.79749179 C393.43466114 161.00588059 393.4388995 166.21426755 393.44339752 171.42265511 C393.45558733 185.86118039 393.46588662 200.2997042 393.46927261 214.73823452 C393.46949218 215.66150693 393.46971175 216.58477934 393.46993797 217.5360297 C393.47015624 218.46143576 393.47037452 219.38684182 393.47059941 220.34029049 C393.47104287 222.21532468 393.47148943 224.09035887 393.47193909 225.96539307 C393.47216052 226.89546282 393.47238195 227.82553256 393.47261009 228.78378624 C393.47655426 243.83882209 393.49399793 258.89380942 393.51729861 273.94882654 C393.5410629 289.4292037 393.5534768 304.90955656 393.55464053 320.38995224 C393.55555454 329.07200614 393.56123725 337.75399685 393.57946014 346.43603325 C393.59492995 353.8321582 393.59994137 361.22820043 393.59172204 368.6243385 C393.58783948 372.39153321 393.58862643 376.15856168 393.60277939 379.92573547 C393.71337351 411.19904752 390.10309835 440.09742052 368.23170471 464.14044189 C366.92459534 465.58677002 366.92459534 465.58677002 365.59107971 467.06231689 C348.37033815 485.48730612 323.85356065 497.37262585 298.45895112 498.23455286 C295.12674941 498.27508324 291.79585985 498.28331669 288.46340942 498.28088379 C286.54779509 498.28534047 286.54779509 498.28534047 284.59348148 498.28988719 C281.06427846 498.29791472 277.53509583 498.29974438 274.00588477 498.30048466 C270.1931165 498.30234269 266.38035864 498.30989385 262.56759644 498.31661987 C254.23661735 498.33017436 245.90564309 498.33622365 237.57465482 498.34063053 C232.36626602 498.34339832 227.15787906 498.34763669 221.9494915 498.3521347 C207.51096622 498.36432451 193.0724424 498.3746238 178.63391209 498.3780098 C177.71063968 498.37822936 176.78736727 498.37844893 175.83611691 498.37867515 C174.44800782 498.37900256 174.44800782 498.37900256 173.03185612 498.3793366 C171.15682193 498.37978005 169.28178773 498.38022661 167.40675354 498.38067627 C166.47668379 498.3808977 165.54661404 498.38111913 164.58836036 498.38134727 C149.53332452 498.38529144 134.47833719 498.40273511 119.42332006 498.42603579 C103.94294291 498.44980008 88.46259004 498.46221398 72.98219436 498.46337771 C64.30014046 498.46429172 55.61814976 498.46997443 46.93611336 498.48819733 C39.53998841 498.50366713 32.14394618 498.50867855 24.74780811 498.50045922 C20.9806134 498.49657667 17.21358493 498.49736361 13.44641113 498.51151657 C-17.82690092 498.6221107 -46.72527392 495.01183553 -70.76829529 473.14044189 C-72.21462341 471.83333252 -72.21462341 471.83333252 -73.69017029 470.49981689 C-92.11515951 453.27907534 -104.00047924 428.76229783 -104.86240625 403.3676883 C-104.90293664 400.03548659 -104.91117008 396.70459703 -104.90873718 393.37214661 C-104.9117083 392.09507039 -104.91467943 390.81799416 -104.91774058 389.50221866 C-104.92576811 385.97301565 -104.92759777 382.44383301 -104.92833805 378.91462195 C-104.93019609 375.10185369 -104.93774725 371.28909582 -104.94447327 367.47633362 C-104.95802775 359.14535453 -104.96407704 350.81438028 -104.96848392 342.483392 C-104.97125171 337.2750032 -104.97549008 332.06661624 -104.9799881 326.85822868 C-104.9921779 312.4197034 -105.0024772 297.98117959 -105.00586319 283.54264927 C-105.00608276 282.61937686 -105.00630232 281.69610445 -105.00652854 280.74485409 C-105.00674682 279.81944803 -105.0069651 278.89404197 -105.00718999 277.9405933 C-105.00763345 276.06555911 -105.00808001 274.19052492 -105.00852966 272.31549072 C-105.00875109 271.38542097 -105.00897252 270.45535122 -105.00920066 269.49709754 C-105.01314483 254.4420617 -105.03058851 239.38707437 -105.05388919 224.33205725 C-105.07765347 208.85168009 -105.09006738 193.37132722 -105.09123111 177.89093155 C-105.09214511 169.20887765 -105.09782783 160.52688694 -105.11605072 151.84485054 C-105.13152052 144.44872559 -105.13653194 137.05268336 -105.12831262 129.65654529 C-105.12443006 125.88935058 -105.12521701 122.12232211 -105.13936996 118.35514832 C-105.24996409 87.08183626 -101.63968892 58.18346327 -79.76829529 34.14044189 C-78.89688904 33.17622314 -78.02548279 32.21200439 -77.12767029 31.21856689 C-56.69617623 9.35829703 -29.51183945 -0.02154551 0 0 Z " fill="#FEFEFE" transform="translate(105.76829528808594,0.85955810546875)"/>
<path d="M0 0 C3.00935606 1.02856153 4.47067456 2.27194634 6.72457886 4.50544739 C7.50823822 5.27327042 8.29189758 6.04109344 9.0993042 6.83218384 C9.92971222 7.66755173 10.76012024 8.50291962 11.61569214 9.36360168 C12.47663483 10.21834579 13.33757751 11.0730899 14.22460938 11.95373535 C16.03999295 13.76201849 17.85025262 15.57545813 19.6557312 17.39363098 C22.43070502 20.18249429 25.22885219 22.94651155 28.02975464 25.70930481 C29.78901935 27.46761863 31.54688124 29.2273374 33.30319214 30.98860168 C34.14574554 31.81789688 34.98829895 32.64719208 35.85638428 33.50161743 C36.62113068 34.27889694 37.38587708 35.05617645 38.17379761 35.85700989 C39.1937532 36.87840813 39.1937532 36.87840813 40.23431396 37.92044067 C41.56100464 39.87532043 41.56100464 39.87532043 41.35990906 42.01322937 C40.37346301 44.31244355 39.13239618 45.7215625 37.39303589 47.51985168 C36.74657104 48.19725403 36.1001062 48.87465637 35.43405151 49.57258606 C34.75407104 50.2706134 34.07409058 50.96864075 33.37350464 51.68782043 C32.04522753 53.06793275 30.71838913 54.44943127 29.39303589 55.83235168 C28.74802124 56.50218079 28.10300659 57.17200989 27.43844604 57.86213684 C25.61589635 59.81645996 23.9020552 61.82951555 22.19772339 63.88703918 C21.3276062 64.873172 20.45748901 65.85930481 19.56100464 66.87532043 C18.90100464 66.87532043 18.24100464 66.87532043 17.56100464 66.87532043 C17.30214478 67.46087708 17.04328491 68.04643372 16.77658081 68.6497345 C15.4687874 71.04416004 14.06364363 72.58625373 12.11178589 74.48469543 C11.42793823 75.15758606 10.74409058 75.83047668 10.03952026 76.52375793 C9.32473511 77.21727356 8.60994995 77.91078918 7.87350464 78.62532043 C3.09043189 83.28870554 -1.50344813 88.00566225 -5.86013794 93.0716095 C-7.94557715 95.45404724 -10.17110916 97.66711545 -12.43899536 99.87532043 C-16.06781058 103.46021656 -19.47962396 107.13825643 -22.79446411 111.01203918 C-24.44298288 112.87983836 -26.16203117 114.62987668 -27.93899536 116.37532043 C-30.27022568 118.66547181 -32.44868101 121.00987644 -34.56399536 123.50032043 C-37.84412063 127.31476475 -41.36423979 130.84095758 -44.93899536 134.37532043 C-49.01533779 138.40580974 -52.9245275 142.4776643 -56.63430786 146.85188293 C-59.41616038 149.9709297 -62.41434391 152.87121685 -65.38821411 155.80500793 C-68.65169173 159.04151466 -71.69611587 162.39339404 -74.67337036 165.89094543 C-77.50555052 169.07401517 -80.56592386 172.02253561 -83.61868286 174.99250793 C-85.50283434 176.75285382 -85.50283434 176.75285382 -86.43899536 178.87532043 C-87.09899536 178.87532043 -87.75899536 178.87532043 -88.43899536 178.87532043 C-88.43899536 179.53532043 -88.43899536 180.19532043 -88.43899536 180.87532043 C-89.09899536 180.87532043 -89.75899536 180.87532043 -90.43899536 180.87532043 C-90.70236694 181.46538879 -90.96573853 182.05545715 -91.23709106 182.66340637 C-92.49101188 184.97104859 -93.79094797 186.44259438 -95.66946411 188.26594543 C-96.30432739 188.88920715 -96.93919067 189.51246887 -97.59329224 190.15461731 C-98.26424927 190.80494934 -98.9352063 191.45528137 -99.62649536 192.12532043 C-104.25693969 196.67706033 -108.77699335 201.22437927 -112.97024536 206.18782043 C-115.08906847 208.62221295 -117.39948476 210.84537986 -119.70071411 213.10578918 C-121.46856852 214.90542525 -123.11154078 216.77133955 -124.75149536 218.68782043 C-128.30373411 222.81480343 -132.14913693 226.601073 -136.02102661 230.42610168 C-138.74421678 233.18448656 -141.27223363 236.06417644 -143.79055786 239.00813293 C-146.00483365 241.51624627 -148.37870307 243.83551474 -150.78274536 246.16047668 C-152.37784902 247.8120109 -153.64951191 249.524587 -155.00149536 251.37532043 C-160.87683177 258.12277709 -168.86189016 261.70064317 -177.63430786 262.52375793 C-187.79761798 263.02520119 -196.22036562 262.41549763 -204.43899536 255.87532043 C-205.53727661 255.06321106 -205.53727661 255.06321106 -206.65774536 254.23469543 C-214.28104474 248.14743399 -219.57173728 240.30811296 -220.88821411 230.54328918 C-221.13170447 226.98673336 -221.32224123 223.43833436 -221.43899536 219.87532043 C-221.46606567 219.05418762 -221.49313599 218.23305481 -221.52102661 217.38703918 C-221.15028233 207.7300335 -214.11814937 198.4728222 -207.43899536 191.87532043 C-205.45685124 190.0726461 -203.44464295 188.3176025 -201.39993286 186.58625793 C-199.52120261 184.94704708 -197.79216715 183.23343307 -196.06399536 181.43782043 C-193.43899536 178.87532043 -193.43899536 178.87532043 -191.43899536 178.87532043 C-191.43899536 178.21532043 -191.43899536 177.55532043 -191.43899536 176.87532043 C-189.98123169 175.42121887 -189.98123169 175.42121887 -187.95852661 173.73469543 C-183.55604475 169.98963279 -179.32921178 166.09216271 -175.12649536 162.12532043 C-174.38665405 161.42866272 -173.64681274 160.732005 -172.884552 160.01423645 C-167.7469696 155.15856385 -162.73583661 150.20041727 -157.76712036 145.17219543 C-155.77746909 143.20925089 -153.75590679 141.37013601 -151.62649536 139.56282043 C-147.01772683 135.63824022 -142.83571914 131.29724304 -138.58132935 126.99812317 C-134.96493586 123.35836985 -131.27914743 119.89391065 -127.36087036 116.57844543 C-124.94925604 114.4413238 -122.70360279 112.16737765 -120.43899536 109.87532043 C-117.62442962 107.02669036 -114.81164284 104.27002731 -111.75149536 101.68782043 C-106.70641569 97.40210327 -102.14706489 92.60072406 -97.54177856 87.85310364 C-96.91231323 87.21203674 -96.2828479 86.57096985 -95.63430786 85.91047668 C-95.06728149 85.32661194 -94.50025513 84.74274719 -93.91604614 84.14118958 C-92.43899536 82.87532043 -92.43899536 82.87532043 -90.43899536 82.87532043 C-90.43899536 82.21532043 -90.43899536 81.55532043 -90.43899536 80.87532043 C-89.00540161 79.46516418 -89.00540161 79.46516418 -87.00149536 77.81282043 C-83.83142319 75.1235705 -80.85318012 72.34018666 -77.93899536 69.37532043 C-74.58608508 65.97647988 -71.12339857 62.81281313 -67.49368286 59.71516418 C-64.27665437 56.834517 -61.30843498 53.71468338 -58.32180786 50.59797668 C-56.43899536 48.87532043 -56.43899536 48.87532043 -54.43899536 48.87532043 C-54.43899536 48.21532043 -54.43899536 47.55532043 -54.43899536 46.87532043 C-53.11087036 45.53547668 -53.11087036 45.53547668 -51.18899536 43.93782043 C-47.52135381 40.81739361 -43.92595618 37.62917772 -40.37649536 34.37532043 C-39.85700317 33.89941467 -39.33751099 33.42350891 -38.80227661 32.93318176 C-35.46787441 29.8627178 -32.24521439 26.70778894 -29.06790161 23.47688293 C-26.67759987 21.12670616 -24.14866508 18.95064122 -21.61087036 16.76203918 C-19.17113248 14.6426266 -16.77320012 12.48074883 -14.37649536 10.31282043 C-13.53602661 9.561297 -12.69555786 8.80977356 -11.82962036 8.03547668 C-10.34079331 6.69018035 -8.86860665 5.32593441 -7.42337036 3.93391418 C-3.05792454 -0.15631875 -3.05792454 -0.15631875 0 0 Z " fill="#AE72F9" transform="translate(264.4389953613281,174.1246795654297)"/>
<path d="M0 0 C0.71800781 -0.02835937 1.43601562 -0.05671875 2.17578125 -0.0859375 C9.56082208 1.2693266 14.60485533 6.88686626 19.6328125 12.02734375 C20.36571503 12.76449112 21.09861755 13.50163849 21.85372925 14.26112366 C24.18050381 16.60458999 26.49661229 18.95827936 28.8125 21.3125 C30.37560279 22.89066689 31.93939841 24.46814787 33.50390625 26.04492188 C37.00069321 29.57143192 40.48974535 33.10543946 43.97529602 36.64305115 C45.49820346 38.18352052 47.02856044 39.71590043 48.5637207 41.24414062 C50.39469752 43.0812214 52.09137201 44.94622238 53.75 46.9375 C55.44631542 48.9485956 57.13572721 50.82322721 59 52.6875 C61.79310504 55.48060504 61.94781576 57.64490055 62.125 61.5 C62.18558594 62.41007812 62.24617188 63.32015625 62.30859375 64.2578125 C60.57124424 72.97734024 51.50845584 79.86482732 45.46875 85.89453125 C44.48257173 86.88460611 43.49661388 87.87490058 42.51086426 88.86540222 C40.45674316 90.92693496 38.39885634 92.98461607 36.33837891 95.03979492 C33.70729495 97.66506129 31.08781151 100.30157842 28.47122955 102.94128895 C26.4432184 104.98406648 24.40828565 107.01983844 22.37132263 109.05368614 C21.40260004 110.02291951 20.43621531 110.99449574 19.4723053 111.9685154 C18.12352544 113.32971137 16.76409685 114.68033033 15.40429688 116.03051758 C14.63629761 116.79914627 13.86829834 117.56777496 13.07702637 118.35969543 C9.44589358 121.42215944 5.54095324 123.81066817 0.6875 123.75 C-0.240625 123.76160156 -0.240625 123.76160156 -1.1875 123.7734375 C-6.57496525 122.76328777 -10.38667714 119.67308584 -14.15283203 115.87524414 C-15.06042267 114.96742691 -15.96801331 114.05960968 -16.90310669 113.12428284 C-17.87566734 112.13639687 -18.84806537 111.14835077 -19.8203125 110.16015625 C-20.83282573 109.14203813 -21.84601052 108.12458747 -22.85983276 107.10777283 C-25.51832199 104.43787413 -28.1676848 101.75909754 -30.81518555 99.07830811 C-33.50547224 96.35735336 -36.20423796 93.6448382 -38.90234375 90.93164062 C-43.65017627 86.15516018 -48.390526 81.37138162 -53.1255188 76.58216858 C-54.58039774 75.11386008 -56.04598697 73.65608512 -57.52218628 72.20921326 C-60.57545848 69.08107304 -61.61133249 66.34154789 -61.6875 62 C-61.71585937 61.27039063 -61.74421875 60.54078125 -61.7734375 59.7890625 C-60.71405945 54.24079443 -56.28956009 50.1005116 -52.42382812 46.22753906 C-51.71570229 45.51415627 -51.71570229 45.51415627 -50.99327087 44.78636169 C-49.44838536 43.23275112 -47.89639252 41.68648044 -46.34375 40.140625 C-45.26016517 39.05569132 -44.17687725 37.97046103 -43.09387207 36.88494873 C-40.83095273 34.61909102 -38.56448135 32.35686458 -36.29541016 30.09716797 C-33.39007248 27.20325136 -30.49384314 24.30041102 -27.60019684 21.39480972 C-25.36817287 19.15555567 -23.1314036 16.92109064 -20.89317322 14.68804169 C-19.82320937 13.61940973 -18.75472295 12.54929634 -17.6877594 11.47766876 C-16.19702052 9.98184281 -14.70000668 8.49259062 -13.20117188 7.00488281 C-12.3516394 6.15694153 -11.50210693 5.30900024 -10.62683105 4.43536377 C-7.22245521 1.40457324 -4.55301207 0.08087055 0 0 Z " fill="#AE72F9" transform="translate(329.3125,87.625)"/>
<path d="M0 0 C3.8146927 1.52587708 7.20931313 3.14048551 10.8125 5.0625 C17.04488549 8.20160593 21.49818311 9.18759733 28.5 8.8125 C37.21828318 9.27955088 42.33586618 14.90953352 48 21 C49.36125 22.3303125 49.36125 22.3303125 50.75 23.6875 C53.01225829 26.0125988 54.98276556 28.46218893 57 31 C58.0828125 32.0828125 58.0828125 32.0828125 59.1875 33.1875 C61.85679306 35.85679306 62.17501398 37.57568491 62.25 41.25 C62.27578125 41.99765625 62.3015625 42.7453125 62.328125 43.515625 C61.56293387 49.30921497 58.15173913 53.22541871 54.14892578 57.23925781 C53.66884064 57.72459991 53.18875549 58.20994202 52.69412231 58.70999146 C51.11860368 60.29862264 49.53247487 61.8761332 47.9453125 63.453125 C46.84012738 64.56033303 45.73538776 65.6679859 44.631073 66.77606201 C42.32090383 69.09064241 40.00542548 71.39973923 37.68603516 73.70507812 C34.71787521 76.656127 31.76341477 79.62046783 28.81279182 82.58903885 C26.53622644 84.87645734 24.25254848 87.15666698 21.96667099 89.43477631 C20.87445915 90.52499141 19.78445898 91.61742702 18.69675064 92.71213531 C17.174942 94.24158567 15.64380594 95.76105268 14.10986328 97.27832031 C13.24177032 98.14402649 12.37367737 99.00973267 11.47927856 99.90167236 C7.25394209 103.47776923 3.64812458 104.21302107 -1.83984375 104.4609375 C-8.92747283 102.94856818 -14.41523993 95.92317228 -19.31494141 91.00073242 C-20.75173404 89.56076213 -22.20140703 88.13468528 -23.65234375 86.70898438 C-24.56628906 85.79568359 -25.48023438 84.88238281 -26.421875 83.94140625 C-27.66855957 82.69919312 -27.66855957 82.69919312 -28.94042969 81.43188477 C-32.6780956 77.01855022 -33.17657137 73.70035157 -32.75 68.0625 C-32.55873509 58.172979 -37.01580106 50.30699824 -42 42 C-28.14 28.14 -14.28 14.28 0 0 Z " fill="#AE72F9" transform="translate(395,173)"/>
<path d="M0 0 C0 3 0 3 -1.86022949 5.22099304 C-3.1659491 6.51671989 -3.1659491 6.51671989 -4.49804688 7.83862305 C-5.21493431 8.5561676 -5.21493431 8.5561676 -5.94630432 9.28820801 C-7.53011328 10.86992448 -9.12428875 12.44074692 -10.71875 14.01171875 C-11.81799394 15.10536839 -12.91657805 16.19968161 -14.01452637 17.29463196 C-16.90796184 20.1766057 -19.8102929 23.04945801 -22.71453857 25.92053223 C-25.67577181 28.85109327 -28.62854473 31.79015107 -31.58203125 34.72851562 C-37.37975242 40.49404922 -43.18689419 46.24997854 -49 52 C-52.54880434 50.63794345 -55.24187956 49.20142408 -58.25 46.875 C-74.32610527 35.43623279 -94.03227557 28.5759187 -113.65307617 27.75634766 C-117.86310399 27.53765488 -120.41638347 27.34737327 -124.09765625 25.15625 C-126 23 -126 23 -126.625 19.625 C-125.51314631 13.17624857 -121.60810756 10.29906679 -116.5625 6.625 C-114.72188671 5.39611995 -112.86652374 4.18915625 -111 3 C-109.9790625 2.34773438 -108.958125 1.69546875 -107.90625 1.0234375 C-73.40879687 -19.85235774 -34.6936873 -20.34016594 0 0 Z " fill="#AE73F9" transform="translate(310,78)"/>
</svg>
