<svg version="1.1" id="Layer_1" xmlns="http://www.w3.org/2000/svg" xmlns:xlink="http://www.w3.org/1999/xlink" x="0px" y="0px"
	 width="100%" viewBox="0 0 1200 1200" enable-background="new 0 0 1200 1200" xml:space="preserve">
<path fill="#FFFFFF" opacity="1.000000" stroke="none" 
	d="
M665.000000,1201.000000 
	C443.333344,1201.000000 222.166672,1201.000000 1.000000,1201.000000 
	C1.000000,801.000000 1.000000,401.000000 1.000000,1.000000 
	C401.000000,1.000000 801.000000,1.000000 1201.000000,1.000000 
	C1201.000000,401.000000 1201.000000,801.000000 1201.000000,1201.000000 
	C1022.500000,1201.000000 844.000000,1201.000000 665.000000,1201.000000 
M384.245728,1156.226807 
	C441.396423,1178.656372 500.660767,1191.699097 561.869873,1195.841919 
	C606.247437,1198.845459 650.457336,1196.803711 694.368835,1189.760864 
	C768.127441,1177.930786 837.388184,1153.328125 901.881409,1115.558838 
	C1079.064575,1011.794861 1189.265991,826.011047 1196.773682,621.981689 
	C1198.575928,573.003723 1194.327393,524.470520 1183.934570,476.549957 
	C1161.462769,372.933838 1115.521484,280.982147 1044.112305,202.602142 
	C937.444580,85.521774 804.619263,20.428110 646.728210,6.797507 
	C600.024292,2.765597 553.505188,4.920707 507.274200,12.316443 
	C436.907074,23.573328 370.595428,46.654900 308.469849,81.655312 
	C138.452026,177.440201 24.960161,350.790100 7.193653,548.468262 
	C3.122697,593.763611 4.413458,638.961609 10.772016,684.035522 
	C19.395206,745.162781 36.616814,803.735352 63.816097,859.115234 
	C132.427948,998.814392 239.205658,1097.672607 384.245728,1156.226807 
z"/>
<path fill="#F75C46" opacity="1.000000" stroke="none" 
	d="
M383.879028,1156.106934 
	C239.205658,1097.672607 132.427948,998.814392 63.816097,859.115234 
	C36.616814,803.735352 19.395206,745.162781 10.772016,684.035522 
	C4.413458,638.961609 3.122697,593.763611 7.193653,548.468262 
	C24.960161,350.790100 138.452026,177.440201 308.469849,81.655312 
	C370.595428,46.654900 436.907074,23.573328 507.274200,12.316443 
	C553.505188,4.920707 600.024292,2.765597 646.728210,6.797507 
	C804.619263,20.428110 937.444580,85.521774 1044.112305,202.602142 
	C1115.521484,280.982147 1161.462769,372.933838 1183.934570,476.549957 
	C1194.327393,524.470520 1198.575928,573.003723 1196.773682,621.981689 
	C1189.265991,826.011047 1079.064575,1011.794861 901.881409,1115.558838 
	C837.388184,1153.328125 768.127441,1177.930786 694.368835,1189.760864 
	C650.457336,1196.803711 606.247437,1198.845459 561.869873,1195.841919 
	C500.660767,1191.699097 441.396423,1178.656372 383.879028,1156.106934 
M730.931274,449.152466 
	C724.608215,410.414581 718.286621,371.676453 711.961792,332.938873 
	C705.422546,292.888397 698.773682,252.855103 692.483643,212.765533 
	C691.755188,208.122955 690.009399,207.300293 685.843323,207.311996 
	C640.695801,207.438934 595.547791,207.391266 550.399902,207.391266 
	C548.752625,207.391266 547.105347,207.391266 545.183594,207.391266 
	C544.749390,209.645218 544.326233,211.577240 544.009277,213.526535 
	C537.869812,251.283234 531.757751,289.044373 525.608948,326.799591 
	C518.765076,368.822632 511.877411,410.838593 505.032471,452.861481 
	C498.535004,492.750763 492.033508,532.639526 485.606079,572.540100 
	C483.253876,587.142273 481.109314,601.777893 478.483490,616.883545 
	C472.809570,620.962769 467.302460,625.301208 461.433472,629.077209 
	C433.217865,647.230408 402.596283,652.958923 369.780151,645.917542 
	C352.516846,642.213318 339.693146,632.700378 335.770630,614.795959 
	C333.879913,606.165710 333.434174,596.850891 334.347229,588.054993 
	C335.984039,572.286255 343.903351,560.084534 359.375580,554.275208 
	C365.546661,551.958130 372.049896,549.654053 378.530334,549.207581 
	C393.619415,548.167786 408.786346,548.254272 423.922089,547.898682 
	C425.850525,547.853333 427.780945,547.892517 429.682251,547.892517 
	C429.682251,515.582153 429.682251,484.035522 429.682251,452.268402 
	C394.569244,451.509155 359.981628,452.006226 326.813599,464.037537 
	C287.101105,478.442810 260.329376,505.449066 248.655746,546.499451 
	C239.152664,579.917175 239.510620,613.667358 247.458221,647.176453 
	C255.873520,682.657593 275.415222,710.497314 307.650909,728.658752 
	C333.832977,743.409668 362.471252,748.638062 392.007812,749.801086 
	C414.200165,750.674927 436.199463,748.654541 457.724945,743.914185 
	C457.567474,744.561401 457.365845,745.201355 457.258881,745.856812 
	C451.229584,782.793152 445.195984,819.728821 439.192749,856.669434 
	C437.090820,869.603455 435.065338,882.549866 432.974884,895.679626 
	C466.541229,895.679626 499.758698,895.679626 533.276917,895.679626 
	C539.863525,850.722046 546.410767,806.033142 552.961731,761.319092 
	C594.292847,761.319092 634.910950,761.319092 676.132568,761.319092 
	C682.624268,806.216980 689.105408,851.042297 695.567200,895.733398 
	C731.840088,895.733398 767.451538,895.733398 803.258545,895.733398 
	C803.123657,893.968201 803.119019,892.464600 802.880066,890.999268 
	C799.400391,869.657471 795.859802,848.325623 792.393433,826.981689 
	C788.180298,801.040283 784.023315,775.089783 780.651855,748.955688 
	C792.408020,746.019165 804.423035,743.851990 815.871704,740.001221 
	C849.712036,728.618835 874.830078,707.094849 889.487671,674.101379 
	C898.473572,653.874512 902.443054,632.458984 902.697266,610.543396 
	C902.860596,596.466370 901.792175,582.248047 899.817871,568.299377 
	C895.653992,538.881836 884.144104,512.607666 862.668274,491.515228 
	C843.609192,472.796356 820.178772,462.031250 794.438843,456.032471 
	C773.582581,451.171814 752.320312,450.126404 730.931274,449.152466 
M728.672180,928.757812 
	C727.020752,925.844727 729.380737,919.313171 721.924255,921.402466 
	C720.802551,926.190247 719.686951,930.952087 718.571350,935.713928 
	C718.285583,935.731628 717.999756,935.749390 717.713928,935.767090 
	C716.944519,930.965393 716.175110,926.163696 715.382751,921.218811 
	C713.528931,921.218811 711.944885,921.218811 709.781921,921.218811 
	C711.237488,929.283813 712.633667,937.020081 714.042358,944.825562 
	C716.576172,944.825562 718.692322,944.825562 720.991333,944.825562 
	C722.031555,940.294739 723.038330,935.909851 724.324219,930.309204 
	C725.539612,936.028442 726.462158,940.369507 727.376770,944.673340 
	C729.997803,944.673340 732.229797,944.673340 734.596313,944.673340 
	C736.001526,936.744690 737.350586,929.132568 738.742554,921.278809 
	C736.735229,921.278809 735.170471,921.278809 733.437805,921.278809 
	C732.587219,926.576477 731.778076,931.616150 730.968933,936.655762 
	C730.747253,936.663147 730.525574,936.670471 730.303894,936.677856 
	C729.819031,934.309692 729.334167,931.941528 728.672180,928.757812 
M660.655518,923.845764 
	C660.625244,919.246765 657.526917,921.518677 655.325378,921.089172 
	C655.325378,929.264221 655.325378,937.006836 655.325378,945.077454 
	C657.219727,944.934265 658.783447,944.816101 660.767212,944.666199 
	C660.767212,941.342529 660.767212,938.413940 660.767212,935.298523 
	C663.629272,935.298523 666.033020,935.298523 668.985352,935.298523 
	C668.985352,938.628723 668.985352,941.707642 668.985352,944.810181 
	C671.000305,944.810181 672.458984,944.810181 674.071655,944.810181 
	C674.071655,936.850281 674.071655,929.094543 674.071655,920.966858 
	C672.223389,921.074341 670.666870,921.164795 668.773682,921.274841 
	C668.773682,924.326721 668.773682,926.939087 668.773682,929.833557 
	C666.014282,929.833557 663.617798,929.833557 660.901245,929.833557 
	C660.813599,927.998535 660.736023,926.375916 660.655518,923.845764 
M435.920258,927.591003 
	C435.920258,933.306824 435.920258,939.022644 435.920258,944.857361 
	C440.217163,944.857361 443.853607,945.510620 447.085297,944.647827 
	C449.605072,943.975037 452.579224,941.831665 453.559906,939.566284 
	C454.350342,937.740417 452.462585,934.755188 451.765961,932.294617 
	C451.765961,929.568970 453.003052,925.522644 451.528564,923.807495 
	C447.484589,919.103577 441.579498,921.344055 435.920166,921.132568 
	C435.920166,923.361206 435.920166,924.991760 435.920258,927.591003 
M477.871399,936.832153 
	C477.871399,939.429871 477.871399,942.027527 477.871399,945.018677 
	C480.007324,944.864746 481.393280,944.764832 482.861877,944.658997 
	C482.861877,936.688354 482.861877,929.117615 482.861877,921.292480 
	C481.197693,921.292480 479.812042,921.292480 478.126709,921.292480 
	C477.971802,924.279297 477.830231,927.009277 477.685638,929.797729 
	C474.914398,929.797729 472.658630,929.797729 470.128326,929.797729 
	C469.879456,926.811829 469.651459,924.076599 469.393860,920.985901 
	C467.497528,921.096619 465.936829,921.187744 464.272156,921.284912 
	C464.272156,929.296875 464.272156,936.873535 464.272156,944.723999 
	C466.090149,944.723999 467.648987,944.723999 469.457825,944.723999 
	C469.688934,941.431091 469.902924,938.382446 470.166870,934.622314 
	C473.022064,935.123657 475.361603,935.534424 477.871399,936.832153 
M547.282471,920.981201 
	C543.834778,920.981201 540.387085,920.981201 536.611938,920.981201 
	C536.611938,929.153198 536.611938,936.840088 536.611938,944.719238 
	C541.829529,944.719238 546.716187,944.719238 551.944702,944.719238 
	C551.938416,936.447754 544.615051,942.521423 542.045532,938.855042 
	C542.143982,937.942444 542.292664,936.563965 542.436523,935.230042 
	C545.165466,935.050415 547.436707,934.900879 549.662048,934.754395 
	C550.831848,930.960754 549.244629,930.143555 546.055786,930.084656 
	C544.721191,930.059998 543.411560,928.682556 542.090637,927.920166 
	C543.474365,927.224182 544.826843,926.451233 546.257141,925.870178 
	C546.826904,925.638611 547.670898,926.045349 548.211914,925.787537 
	C549.473450,925.186279 550.626831,924.358215 551.824036,923.622131 
	C550.616760,922.742004 549.409424,921.861938 547.282471,920.981201 
M806.668274,925.978699 
	C808.321716,925.906738 809.983887,925.691406 811.626831,925.791565 
	C815.500366,926.027588 815.553345,924.049744 814.669495,921.330933 
	C809.699158,921.330933 804.989380,921.330933 800.377686,921.330933 
	C800.377686,929.399170 800.377686,937.096130 800.377686,944.660828 
	C805.648071,944.660828 810.536255,944.660828 815.827087,944.660828 
	C815.283569,936.900146 808.655762,942.328491 806.020386,939.264954 
	C806.020386,938.207703 806.020386,936.825256 806.020386,935.245728 
	C808.720825,935.084045 811.135071,934.939453 813.406250,934.803467 
	C814.750793,930.793945 812.854309,930.044983 809.784912,930.286499 
	C807.165588,930.492493 804.953003,930.191528 806.668274,925.978699 
M697.101807,940.269470 
	C693.935852,940.191833 689.819885,941.101929 691.968689,935.217224 
	C694.458923,935.068542 696.880005,934.923950 699.194946,934.785645 
	C700.564209,929.361938 696.856506,930.695557 694.300903,930.203552 
	C693.227234,929.996826 692.370789,928.661926 691.415588,927.839905 
	C692.323975,927.148132 693.144897,926.232422 694.167480,925.833130 
	C695.037048,925.493530 696.147278,925.662720 697.136719,925.757202 
	C700.543945,926.082275 701.737854,924.730896 700.525940,921.259888 
	C695.787231,921.259888 691.051575,921.259888 686.218994,921.259888 
	C686.218994,929.258545 686.218994,936.971741 686.218994,944.808167 
	C691.316650,944.808167 696.076111,944.808167 700.940674,944.808167 
	C701.631836,941.996582 701.643311,939.918518 697.101807,940.269470 
M747.779175,936.148804 
	C746.910706,938.941772 746.042236,941.734741 745.091614,944.791992 
	C747.163574,944.791992 748.767700,944.791992 750.506775,944.791992 
	C750.742920,944.014404 750.976318,943.411682 751.106506,942.787476 
	C751.586121,940.488098 752.390381,938.923828 755.327271,939.082153 
	C757.933350,939.222717 759.474609,939.573730 760.379272,942.530518 
	C760.812073,943.944824 763.629395,944.629517 765.366699,945.644714 
	C765.711548,945.179016 766.056396,944.713318 766.401306,944.247620 
	C764.315796,937.613403 762.098450,931.016357 760.212341,924.325928 
	C759.497253,921.789307 758.370972,920.950867 755.740173,920.875793 
	C752.919800,920.795166 752.022156,922.125366 751.376404,924.437866 
	C750.350220,928.113098 749.123169,931.732178 747.779175,936.148804 
M426.887299,943.638794 
	C424.840393,936.974304 422.910034,930.269592 420.636566,923.683289 
	C420.238525,922.530151 418.435059,921.223999 417.215942,921.156494 
	C415.743195,921.074951 413.221619,921.883484 412.847595,922.918701 
	C410.289490,929.999207 408.175873,937.240356 405.888123,944.528015 
	C409.408875,945.363892 411.671539,945.513794 412.407776,941.609802 
	C412.604797,940.565063 415.031586,939.313232 416.444122,939.301758 
	C417.858337,939.290222 420.307831,940.498291 420.524780,941.541687 
	C421.387543,945.691040 423.708923,945.560059 426.887299,943.638794 
M562.911438,935.467896 
	C562.911438,938.544067 562.911438,941.620300 562.911438,944.783691 
	C568.309021,944.783691 572.901550,944.783691 577.526428,944.783691 
	C579.442932,939.374878 575.657898,940.119629 572.850037,940.223083 
	C569.136597,940.359863 566.976013,939.561035 568.730957,935.388489 
	C569.106628,935.265747 569.260071,935.210693 569.416260,935.165344 
	C571.836426,934.462891 576.319702,933.817810 576.340576,933.051270 
	C576.469360,928.307678 572.295959,931.046997 570.076294,930.100525 
	C569.327454,929.781311 568.246460,928.769165 568.341553,928.267944 
	C568.507568,927.392456 569.337402,926.199097 570.122070,925.982422 
	C571.514587,925.597778 573.083557,925.782227 574.574646,925.838013 
	C578.525146,925.985840 578.443787,923.978271 577.396606,921.314758 
	C572.513672,921.314758 567.941833,921.314758 562.911316,921.314758 
	C562.911316,925.919678 562.911316,930.201416 562.911438,935.467896 
M639.017822,937.800354 
	C637.811829,941.954895 634.660278,940.273010 632.604492,939.384521 
	C629.606995,938.088867 628.365417,938.885132 627.587341,941.829590 
	C628.386475,942.435730 629.098572,943.167053 629.960693,943.598694 
	C635.643616,946.444214 642.361389,944.914978 644.427429,940.365662 
	C646.355530,936.119995 644.348267,933.473267 637.137512,930.216614 
	C635.889282,929.652893 635.048218,928.187561 634.019043,927.138672 
	C635.505859,926.806580 637.252563,925.813110 638.427429,926.274841 
	C641.210266,927.368530 642.770935,926.769836 644.159485,923.148499 
	C641.421387,922.403442 638.853577,921.194092 636.251831,921.115845 
	C632.312683,920.997559 628.956299,922.795715 628.151001,927.022034 
	C627.396423,930.982178 630.056091,933.058350 633.367371,934.486938 
	C635.177917,935.268066 636.920898,936.205872 639.017822,937.800354 
M592.641296,920.986084 
	C590.868164,920.986084 589.094971,920.986084 587.558228,920.986084 
	C585.311462,927.448914 590.934387,924.948730 593.402283,926.977966 
	C593.402283,932.610291 593.402283,938.648499 593.402283,945.057068 
	C595.623169,944.903198 597.173584,944.795837 599.263916,944.651001 
	C599.263916,938.185059 599.263916,932.146301 599.263916,926.074768 
	C600.649536,925.960754 601.572998,926.110596 602.265259,925.778564 
	C603.512878,925.179932 604.622070,924.292725 605.789062,923.526001 
	C604.545471,922.679626 603.377136,921.284241 602.042664,921.101196 
	C599.275085,920.721863 596.419250,920.986328 592.641296,920.986084 
M775.159546,944.163086 
	C779.989685,944.559326 784.819824,944.955566 789.884521,945.371033 
	C790.500610,936.542908 782.958801,942.624084 780.594849,938.579468 
	C780.594849,933.406433 780.594849,927.461853 780.594849,921.249268 
	C778.648438,921.249268 777.079895,921.249268 775.026550,921.249268 
	C775.026550,928.667908 775.026550,935.944092 775.159546,944.163086 
M514.290466,944.606445 
	C520.807129,945.381226 524.482849,943.281494 524.852417,937.922913 
	C525.227173,932.489624 524.935181,927.010315 524.935181,921.298767 
	C523.134827,921.298767 521.747559,921.298767 520.116028,921.298767 
	C519.845764,926.342224 519.569336,931.121643 519.340454,935.903320 
	C519.177917,939.299805 517.944641,940.860474 514.242493,939.570496 
	C513.071228,939.162415 511.524017,939.833435 508.605194,940.209412 
	C511.145752,942.279602 512.368103,943.275696 514.290466,944.606445 
M494.928162,925.688416 
	C494.928162,931.947632 494.928162,938.206909 494.928162,944.682129 
	C496.854401,944.682129 498.234924,944.682129 499.749329,944.682129 
	C499.749329,936.703003 499.749329,929.019836 499.749329,921.443359 
	C496.320465,920.412537 494.505219,921.111145 494.928162,925.688416 
z"/>
<path fill="#505050" opacity="1.000000" stroke="none" 
	d="
M457.796051,743.147888 
	C436.199463,748.654541 414.200165,750.674927 392.007812,749.801086 
	C362.471252,748.638062 333.832977,743.409668 307.650909,728.658752 
	C275.415222,710.497314 255.873520,682.657593 247.458221,647.176453 
	C239.510620,613.667358 239.152664,579.917175 248.655746,546.499451 
	C260.329376,505.449066 287.101105,478.442810 326.813599,464.037537 
	C359.981628,452.006226 394.569244,451.509155 429.682251,452.268402 
	C429.682251,484.035522 429.682251,515.582153 429.682251,547.892517 
	C427.780945,547.892517 425.850525,547.853333 423.922089,547.898682 
	C408.786346,548.254272 393.619415,548.167786 378.530334,549.207581 
	C372.049896,549.654053 365.546661,551.958130 359.375580,554.275208 
	C343.903351,560.084534 335.984039,572.286255 334.347229,588.054993 
	C333.434174,596.850891 333.879913,606.165710 335.770630,614.795959 
	C339.693146,632.700378 352.516846,642.213318 369.780151,645.917542 
	C402.596283,652.958923 433.217865,647.230408 461.433472,629.077209 
	C467.302460,625.301208 472.809570,620.962769 478.982727,616.443359 
	C495.780060,599.845337 512.754883,584.304993 528.204895,567.373291 
	C547.515564,546.210632 566.828369,525.127808 588.556702,505.938049 
	C603.481750,493.489868 618.943787,482.384033 636.166565,473.189667 
	C651.409058,467.528503 665.935791,460.522919 681.260376,456.812134 
	C697.441589,452.893921 714.383484,452.116943 730.993042,449.967712 
	C752.320312,450.126404 773.582581,451.171814 794.438843,456.032471 
	C820.178772,462.031250 843.609192,472.796356 862.668274,491.515228 
	C884.144104,512.607666 895.653992,538.881836 899.817871,568.299377 
	C901.792175,582.248047 902.860596,596.466370 902.697266,610.543396 
	C902.443054,632.458984 898.473572,653.874512 889.487671,674.101379 
	C874.830078,707.094849 849.712036,728.618835 815.871704,740.001221 
	C804.423035,743.851990 792.408020,746.019165 779.828979,749.021973 
	C754.403503,752.561279 729.698181,751.258667 704.852661,751.388611 
	C704.852661,719.292542 704.852661,687.905273 704.852661,656.000366 
	C720.149658,656.000366 735.249695,656.078613 750.348022,655.953491 
	C754.980103,655.915100 759.607483,655.319580 764.640869,655.002197 
	C767.339172,654.661316 769.656982,654.405090 771.924683,653.916565 
	C791.431274,649.714172 805.235474,639.367493 809.540466,618.846375 
	C811.905762,607.571411 811.482239,596.348022 808.559387,585.258057 
	C805.864563,575.033630 800.173218,566.877686 790.988098,561.364380 
	C777.648193,553.357239 762.969177,551.473450 747.423401,551.821533 
	C710.360779,550.591187 678.932800,563.507996 651.393188,587.734985 
	C648.412170,590.126038 645.492798,592.131104 643.110229,594.644958 
	C620.027344,618.999817 597.034668,643.440125 573.710510,668.006592 
	C540.341431,701.591248 504.312836,730.454102 457.796051,743.147888 
z"/>
<path fill="#FFFEFE" opacity="1.000000" stroke="none" 
	d="
M457.760498,743.531006 
	C504.312836,730.454102 540.341431,701.591248 574.173889,668.066589 
	C604.197937,667.976013 633.452942,667.976013 663.187927,667.976013 
	C659.308228,640.817017 655.506042,614.201050 651.703918,587.585144 
	C678.932800,563.507996 710.360779,550.591187 747.460266,552.256531 
	C749.388916,562.471375 750.911865,572.135803 752.463196,581.795593 
	C756.381042,606.191223 760.311646,630.584778 764.237061,654.979126 
	C759.607483,655.319580 754.980103,655.915100 750.348022,655.953491 
	C735.249695,656.078613 720.149658,656.000366 704.852661,656.000366 
	C704.852661,687.905273 704.852661,719.292542 704.852661,751.388611 
	C729.698181,751.258667 754.403503,752.561279 779.424072,749.115723 
	C784.023315,775.089783 788.180298,801.040283 792.393433,826.981689 
	C795.859802,848.325623 799.400391,869.657471 802.880066,890.999268 
	C803.119019,892.464600 803.123657,893.968201 803.258545,895.733398 
	C767.451538,895.733398 731.840088,895.733398 695.567200,895.733398 
	C689.105408,851.042297 682.624268,806.216980 676.132568,761.319092 
	C634.910950,761.319092 594.292847,761.319092 552.961731,761.319092 
	C546.410767,806.033142 539.863525,850.722046 533.276917,895.679626 
	C499.758698,895.679626 466.541229,895.679626 432.974884,895.679626 
	C435.065338,882.549866 437.090820,869.603455 439.192749,856.669434 
	C445.195984,819.728821 451.229584,782.793152 457.258881,745.856812 
	C457.365845,745.201355 457.567474,744.561401 457.760498,743.531006 
z"/>
<path fill="#FFFEFE" opacity="1.000000" stroke="none" 
	d="
M588.259399,506.075592 
	C566.828369,525.127808 547.515564,546.210632 528.204895,567.373291 
	C512.754883,584.304993 495.780060,599.845337 479.175964,616.200684 
	C481.109314,601.777893 483.253876,587.142273 485.606079,572.540100 
	C492.033508,532.639526 498.535004,492.750763 505.032471,452.861481 
	C511.877411,410.838593 518.765076,368.822632 525.608948,326.799591 
	C531.757751,289.044373 537.869812,251.283234 544.009277,213.526535 
	C544.326233,211.577240 544.749390,209.645218 545.183594,207.391266 
	C547.105347,207.391266 548.752625,207.391266 550.399902,207.391266 
	C595.547791,207.391266 640.695801,207.438934 685.843323,207.311996 
	C690.009399,207.300293 691.755188,208.122955 692.483643,212.765533 
	C698.773682,252.855103 705.422546,292.888397 711.961792,332.938873 
	C718.286621,371.676453 724.608215,410.414581 730.962158,449.560120 
	C714.383484,452.116943 697.441589,452.893921 681.260376,456.812134 
	C665.935791,460.522919 651.409058,467.528503 635.997375,472.819214 
	C628.611694,424.348663 621.760071,376.143921 614.908447,327.939178 
	C614.242126,327.951874 613.575745,327.964569 612.909424,327.977264 
	C604.692749,387.343384 596.476074,446.709473 588.259399,506.075592 
z"/>
<path fill="#FFF7F6" opacity="1.000000" stroke="none" 
	d="
M728.760742,929.165588 
	C729.334167,931.941528 729.819031,934.309692 730.303894,936.677856 
	C730.525574,936.670471 730.747253,936.663147 730.968933,936.655762 
	C731.778076,931.616150 732.587219,926.576477 733.437805,921.278809 
	C735.170471,921.278809 736.735229,921.278809 738.742554,921.278809 
	C737.350586,929.132568 736.001526,936.744690 734.596313,944.673340 
	C732.229797,944.673340 729.997803,944.673340 727.376770,944.673340 
	C726.462158,940.369507 725.539612,936.028442 724.324219,930.309204 
	C723.038330,935.909851 722.031555,940.294739 720.991333,944.825562 
	C718.692322,944.825562 716.576172,944.825562 714.042358,944.825562 
	C712.633667,937.020081 711.237488,929.283813 709.781921,921.218811 
	C711.944885,921.218811 713.528931,921.218811 715.382751,921.218811 
	C716.175110,926.163696 716.944519,930.965393 717.713928,935.767090 
	C717.999756,935.749390 718.285583,935.731628 718.571350,935.713928 
	C719.686951,930.952087 720.802551,926.190247 721.924255,921.402466 
	C729.380737,919.313171 727.020752,925.844727 728.760742,929.165588 
z"/>
<path fill="#FFF8F7" opacity="1.000000" stroke="none" 
	d="
M660.656982,924.299561 
	C660.736023,926.375916 660.813599,927.998535 660.901245,929.833557 
	C663.617798,929.833557 666.014282,929.833557 668.773682,929.833557 
	C668.773682,926.939087 668.773682,924.326721 668.773682,921.274841 
	C670.666870,921.164795 672.223389,921.074341 674.071655,920.966858 
	C674.071655,929.094543 674.071655,936.850281 674.071655,944.810181 
	C672.458984,944.810181 671.000305,944.810181 668.985352,944.810181 
	C668.985352,941.707642 668.985352,938.628723 668.985352,935.298523 
	C666.033020,935.298523 663.629272,935.298523 660.767212,935.298523 
	C660.767212,938.413940 660.767212,941.342529 660.767212,944.666199 
	C658.783447,944.816101 657.219727,944.934265 655.325378,945.077454 
	C655.325378,937.006836 655.325378,929.264221 655.325378,921.089172 
	C657.526917,921.518677 660.625244,919.246765 660.656982,924.299561 
z"/>
<path fill="#545050" opacity="1.000000" stroke="none" 
	d="
M435.920227,927.106689 
	C435.920166,924.991760 435.920166,923.361206 435.920166,921.132568 
	C441.579498,921.344055 447.484589,919.103577 451.528564,923.807495 
	C453.003052,925.522644 451.765961,929.568970 451.765961,932.294617 
	C452.462585,934.755188 454.350342,937.740417 453.559906,939.566284 
	C452.579224,941.831665 449.605072,943.975037 447.085297,944.647827 
	C443.853607,945.510620 440.217163,944.857361 435.920258,944.857361 
	C435.920258,939.022644 435.920258,933.306824 435.920227,927.106689 
M446.626343,940.511536 
	C447.230255,939.178528 447.834167,937.845581 448.438110,936.512634 
	C446.245789,935.862671 444.053467,935.212646 441.351929,934.411682 
	C441.351929,937.133606 441.351929,938.715881 441.351929,940.781311 
	C442.999329,940.781311 444.433929,940.781311 446.626343,940.511536 
M442.535339,925.138611 
	C441.950409,926.882996 441.365479,928.627319 440.780548,930.371704 
	C441.275482,930.786255 441.770416,931.200745 442.265381,931.615295 
	C444.010773,930.609558 445.756195,929.603821 447.501678,928.598083 
	C446.108673,927.424011 444.715698,926.249878 442.535339,925.138611 
z"/>
<path fill="#575150" opacity="1.000000" stroke="none" 
	d="
M477.786255,936.388672 
	C475.361603,935.534424 473.022064,935.123657 470.166870,934.622314 
	C469.902924,938.382446 469.688934,941.431091 469.457825,944.723999 
	C467.648987,944.723999 466.090149,944.723999 464.272156,944.723999 
	C464.272156,936.873535 464.272156,929.296875 464.272156,921.284912 
	C465.936829,921.187744 467.497528,921.096619 469.393860,920.985901 
	C469.651459,924.076599 469.879456,926.811829 470.128326,929.797729 
	C472.658630,929.797729 474.914398,929.797729 477.685638,929.797729 
	C477.830231,927.009277 477.971802,924.279297 478.126709,921.292480 
	C479.812042,921.292480 481.197693,921.292480 482.861877,921.292480 
	C482.861877,929.117615 482.861877,936.688354 482.861877,944.658997 
	C481.393280,944.764832 480.007324,944.864746 477.871399,945.018677 
	C477.871399,942.027527 477.871399,939.429871 477.786255,936.388672 
z"/>
<path fill="#585150" opacity="1.000000" stroke="none" 
	d="
M547.742310,920.981506 
	C549.409424,921.861938 550.616760,922.742004 551.824036,923.622070 
	C550.626831,924.358215 549.473450,925.186279 548.211914,925.787537 
	C547.670898,926.045349 546.826904,925.638611 546.257141,925.870178 
	C544.826843,926.451233 543.474365,927.224182 542.090576,927.920166 
	C543.411560,928.682556 544.721191,930.059998 546.055786,930.084656 
	C549.244629,930.143555 550.831848,930.960754 549.662048,934.754395 
	C547.436707,934.900879 545.165466,935.050415 542.436523,935.230042 
	C542.292664,936.563965 542.143982,937.942444 542.045532,938.855042 
	C544.615051,942.521423 551.938416,936.447754 551.944702,944.719238 
	C546.716187,944.719238 541.829529,944.719238 536.611938,944.719238 
	C536.611938,936.840088 536.611938,929.153198 536.611938,920.981201 
	C540.387085,920.981201 543.834778,920.981201 547.742310,920.981506 
z"/>
<path fill="#FEF3F1" opacity="1.000000" stroke="none" 
	d="
M806.313232,926.288330 
	C804.953003,930.191528 807.165588,930.492493 809.784912,930.286499 
	C812.854309,930.044983 814.750793,930.793945 813.406250,934.803467 
	C811.135071,934.939453 808.720825,935.084045 806.020386,935.245728 
	C806.020386,936.825256 806.020386,938.207703 806.020386,939.264954 
	C808.655762,942.328491 815.283569,936.900146 815.827087,944.660828 
	C810.536255,944.660828 805.648071,944.660828 800.377686,944.660828 
	C800.377686,937.096130 800.377686,929.399170 800.377686,921.330933 
	C804.989380,921.330933 809.699158,921.330933 814.669495,921.330933 
	C815.553345,924.049744 815.500366,926.027588 811.626831,925.791565 
	C809.983887,925.691406 808.321716,925.906738 806.313232,926.288330 
z"/>
<path fill="#FFF7F6" opacity="1.000000" stroke="none" 
	d="
M697.539368,940.270020 
	C701.643311,939.918518 701.631836,941.996582 700.940674,944.808167 
	C696.076111,944.808167 691.316650,944.808167 686.218994,944.808167 
	C686.218994,936.971741 686.218994,929.258545 686.218994,921.259888 
	C691.051575,921.259888 695.787231,921.259888 700.525940,921.259888 
	C701.737854,924.730896 700.543945,926.082275 697.136719,925.757202 
	C696.147278,925.662720 695.037048,925.493530 694.167480,925.833130 
	C693.144897,926.232422 692.323975,927.148132 691.415588,927.839905 
	C692.370789,928.661926 693.227234,929.996826 694.300903,930.203552 
	C696.856506,930.695557 700.564209,929.361938 699.194946,934.785645 
	C696.880005,934.923950 694.458923,935.068542 691.968689,935.217224 
	C689.819885,941.101929 693.935852,940.191833 697.539368,940.270020 
z"/>
<path fill="#FFF8F7" opacity="1.000000" stroke="none" 
	d="
M747.880127,935.761963 
	C749.123169,931.732178 750.350220,928.113098 751.376404,924.437866 
	C752.022156,922.125366 752.919800,920.795166 755.740173,920.875793 
	C758.370972,920.950867 759.497253,921.789307 760.212341,924.325928 
	C762.098450,931.016357 764.315796,937.613403 766.401306,944.247620 
	C766.056396,944.713318 765.711548,945.179016 765.366699,945.644714 
	C763.629395,944.629517 760.812073,943.944824 760.379272,942.530518 
	C759.474609,939.573730 757.933350,939.222717 755.327271,939.082153 
	C752.390381,938.923828 751.586121,940.488098 751.106506,942.787476 
	C750.976318,943.411682 750.742920,944.014404 750.506775,944.791992 
	C748.767700,944.791992 747.163574,944.791992 745.091614,944.791992 
	C746.042236,941.734741 746.910706,938.941772 747.880127,935.761963 
M757.577942,932.079224 
	C757.030762,930.235657 756.483582,928.392090 755.588867,925.377747 
	C754.634949,929.252136 753.977539,931.922363 753.320068,934.592651 
	C753.714111,934.938843 754.108154,935.285095 754.502136,935.631348 
	C755.606079,934.700745 756.710022,933.770142 757.577942,932.079224 
z"/>
<path fill="#575050" opacity="1.000000" stroke="none" 
	d="
M426.814575,944.040588 
	C423.708923,945.560059 421.387543,945.691040 420.524780,941.541687 
	C420.307831,940.498291 417.858337,939.290222 416.444122,939.301758 
	C415.031586,939.313232 412.604797,940.565063 412.407776,941.609802 
	C411.671539,945.513794 409.408875,945.363892 405.888123,944.528015 
	C408.175873,937.240356 410.289490,929.999207 412.847595,922.918701 
	C413.221619,921.883484 415.743195,921.074951 417.215942,921.156494 
	C418.435059,921.223999 420.238525,922.530151 420.636566,923.683289 
	C422.910034,930.269592 424.840393,936.974304 426.814575,944.040588 
M418.696381,933.650024 
	C418.057770,931.290894 417.419189,928.931763 416.473663,925.438843 
	C415.498505,929.184265 414.815918,931.806030 413.947144,935.142761 
	C415.908051,934.837036 417.271790,934.624451 418.696381,933.650024 
z"/>
<path fill="#585150" opacity="1.000000" stroke="none" 
	d="
M562.911377,934.975525 
	C562.911316,930.201416 562.911316,925.919678 562.911316,921.314758 
	C567.941833,921.314758 572.513672,921.314758 577.396606,921.314758 
	C578.443787,923.978271 578.525146,925.985840 574.574646,925.838013 
	C573.083557,925.782227 571.514587,925.597778 570.122070,925.982422 
	C569.337402,926.199097 568.507568,927.392456 568.341553,928.267944 
	C568.246460,928.769165 569.327454,929.781311 570.076294,930.100525 
	C572.295959,931.046997 576.469360,928.307678 576.340576,933.051270 
	C576.319702,933.817810 571.836426,934.462891 569.416260,935.165344 
	C569.260071,935.210693 569.106628,935.265747 568.730957,935.388489 
	C566.976013,939.561035 569.136597,940.359863 572.850037,940.223083 
	C575.657898,940.119629 579.442932,939.374878 577.526428,944.783691 
	C572.901550,944.783691 568.309021,944.783691 562.911438,944.783691 
	C562.911438,941.620300 562.911438,938.544067 562.911377,934.975525 
z"/>
<path fill="#FFF6F5" opacity="1.000000" stroke="none" 
	d="
M638.856079,937.436707 
	C636.920898,936.205872 635.177917,935.268066 633.367371,934.486938 
	C630.056091,933.058350 627.396423,930.982178 628.151001,927.022034 
	C628.956299,922.795715 632.312683,920.997559 636.251831,921.115845 
	C638.853577,921.194092 641.421387,922.403442 644.159485,923.148499 
	C642.770935,926.769836 641.210266,927.368530 638.427429,926.274841 
	C637.252563,925.813110 635.505859,926.806580 634.019043,927.138672 
	C635.048218,928.187561 635.889282,929.652893 637.137512,930.216614 
	C644.348267,933.473267 646.355530,936.119995 644.427429,940.365662 
	C642.361389,944.914978 635.643616,946.444214 629.960693,943.598694 
	C629.098572,943.167053 628.386475,942.435730 627.587341,941.829590 
	C628.365417,938.885132 629.606995,938.088867 632.604492,939.384521 
	C634.660278,940.273010 637.811829,941.954895 638.856079,937.436707 
z"/>
<path fill="#565050" opacity="1.000000" stroke="none" 
	d="
M593.120483,920.986084 
	C596.419250,920.986328 599.275085,920.721863 602.042664,921.101196 
	C603.377136,921.284241 604.545471,922.679626 605.789062,923.526001 
	C604.622070,924.292725 603.512878,925.179932 602.265259,925.778564 
	C601.572998,926.110596 600.649536,925.960754 599.263916,926.074768 
	C599.263916,932.146301 599.263916,938.185059 599.263916,944.651001 
	C597.173584,944.795837 595.623169,944.903198 593.402283,945.057068 
	C593.402283,938.648499 593.402283,932.610291 593.402283,926.977966 
	C590.934387,924.948730 585.311462,927.448914 587.558228,920.986084 
	C589.094971,920.986084 590.868164,920.986084 593.120483,920.986084 
z"/>
<path fill="#FEF2F0" opacity="1.000000" stroke="none" 
	d="
M775.093018,943.691650 
	C775.026550,935.944092 775.026550,928.667908 775.026550,921.249268 
	C777.079895,921.249268 778.648438,921.249268 780.594849,921.249268 
	C780.594849,927.461853 780.594849,933.406433 780.594849,938.579468 
	C782.958801,942.624084 790.500610,936.542908 789.884521,945.371033 
	C784.819824,944.955566 779.989685,944.559326 775.093018,943.691650 
z"/>
<path fill="#555050" opacity="1.000000" stroke="none" 
	d="
M513.940430,944.439087 
	C512.368103,943.275696 511.145752,942.279602 508.605194,940.209412 
	C511.524017,939.833435 513.071228,939.162415 514.242493,939.570496 
	C517.944641,940.860474 519.177917,939.299805 519.340454,935.903320 
	C519.569336,931.121643 519.845764,926.342224 520.116028,921.298767 
	C521.747559,921.298767 523.134827,921.298767 524.935181,921.298767 
	C524.935181,927.010315 525.227173,932.489624 524.852417,937.922913 
	C524.482849,943.281494 520.807129,945.381226 513.940430,944.439087 
z"/>
<path fill="#505050" opacity="1.000000" stroke="none" 
	d="
M494.928406,925.215088 
	C494.505219,921.111145 496.320465,920.412537 499.749329,921.443359 
	C499.749329,929.019836 499.749329,936.703003 499.749329,944.682129 
	C498.234924,944.682129 496.854401,944.682129 494.928162,944.682129 
	C494.928162,938.206909 494.928162,931.947632 494.928406,925.215088 
z"/>
<path fill="#F65C47" opacity="1.000000" stroke="none" 
	d="
M764.640869,655.002197 
	C760.311646,630.584778 756.381042,606.191223 752.463196,581.795593 
	C750.911865,572.135803 749.388916,562.471375 747.816162,552.374084 
	C762.969177,551.473450 777.648193,553.357239 790.988098,561.364380 
	C800.173218,566.877686 805.864563,575.033630 808.559387,585.258057 
	C811.482239,596.348022 811.905762,607.571411 809.540466,618.846375 
	C805.235474,639.367493 791.431274,649.714172 771.924683,653.916565 
	C769.656982,654.405090 767.339172,654.661316 764.640869,655.002197 
z"/>
<path fill="#F75E48" opacity="1.000000" stroke="none" 
	d="
M588.556641,505.938049 
	C596.476074,446.709473 604.692749,387.343384 612.909424,327.977264 
	C613.575745,327.964569 614.242126,327.951874 614.908447,327.939178 
	C621.760071,376.143921 628.611694,424.348663 635.632507,472.923828 
	C618.943787,482.384033 603.481750,493.489868 588.556641,505.938049 
z"/>
<path fill="#F75C47" opacity="1.000000" stroke="none" 
	d="
M651.393188,587.734985 
	C655.506042,614.201050 659.308228,640.817017 663.187927,667.976013 
	C633.452942,667.976013 604.197937,667.976013 574.479553,667.916016 
	C597.034668,643.440125 620.027344,618.999817 643.110229,594.644958 
	C645.492798,592.131104 648.412170,590.126038 651.393188,587.734985 
z"/>
<path fill="#E75B47" opacity="1.000000" stroke="none" 
	d="
M446.247437,940.646423 
	C444.433929,940.781311 442.999329,940.781311 441.351929,940.781311 
	C441.351929,938.715881 441.351929,937.133606 441.351929,934.411682 
	C444.053467,935.212646 446.245789,935.862671 448.438110,936.512634 
	C447.834167,937.845581 447.230255,939.178528 446.247437,940.646423 
z"/>
<path fill="#E35B47" opacity="1.000000" stroke="none" 
	d="
M442.929016,925.107178 
	C444.715698,926.249878 446.108673,927.424011 447.501648,928.598083 
	C445.756195,929.603821 444.010773,930.609558 442.265381,931.615295 
	C441.770416,931.200745 441.275482,930.786255 440.780548,930.371704 
	C441.365479,928.627319 441.950409,926.882996 442.929016,925.107178 
z"/>
<path fill="#F86C59" opacity="1.000000" stroke="none" 
	d="
M757.695923,932.459351 
	C756.710022,933.770142 755.606079,934.700745 754.502136,935.631348 
	C754.108154,935.285095 753.714111,934.938843 753.320068,934.592651 
	C753.977539,931.922363 754.634949,929.252136 755.588867,925.377747 
	C756.483582,928.392090 757.030762,930.235657 757.695923,932.459351 
z"/>
<path fill="#E75B47" opacity="1.000000" stroke="none" 
	d="
M418.665955,934.030884 
	C417.271790,934.624451 415.908051,934.837036 413.947144,935.142761 
	C414.815918,931.806030 415.498505,929.184265 416.473663,925.438843 
	C417.419189,928.931763 418.057770,931.290894 418.665955,934.030884 
z"/>
</svg>